<mxfile host="65bd71144e">
    <diagram id="LDu34mBQQuChH-cnlcev" name="Step1-Purpose">
<<<<<<< HEAD
        <mxGraphModel dx="1444" dy="790" grid="1" gridSize="10" guides="1" tooltips="1" connect="1" arrows="1" fold="1" page="1" pageScale="1" pageWidth="827" pageHeight="1169" math="0" shadow="0">
=======
        <mxGraphModel dx="963" dy="720" grid="1" gridSize="10" guides="1" tooltips="1" connect="1" arrows="1" fold="1" page="1" pageScale="1" pageWidth="827" pageHeight="1169" math="0" shadow="0">
>>>>>>> 031339579866e16f592af8d129042d718f9071ac
            <root>
                <mxCell id="0"/>
                <mxCell id="1" parent="0"/>
                <mxCell id="IRgxSV-u55t7lliXxvqD-1" value="Me" style="shape=umlActor;verticalLabelPosition=bottom;verticalAlign=top;html=1;outlineConnect=0;fillColor=#ffe6cc;strokeColor=#d79b00;" parent="1" vertex="1">
                    <mxGeometry x="380" y="560" width="51" height="90" as="geometry"/>
                </mxCell>
<<<<<<< HEAD
                <mxCell id="IRgxSV-u55t7lliXxvqD-2" value="Auction House" style="ellipse;shape=cloud;whiteSpace=wrap;html=1;fillColor=#dae8fc;strokeColor=#6c8ebf;" parent="1" vertex="1">
                    <mxGeometry x="70" y="320" width="180" height="120" as="geometry"/>
                </mxCell>
                <mxCell id="IRgxSV-u55t7lliXxvqD-3" value="Sets of products" style="ellipse;shape=cloud;whiteSpace=wrap;html=1;fillColor=#dae8fc;strokeColor=#6c8ebf;" parent="1" vertex="1">
                    <mxGeometry x="315.5" y="140" width="180" height="120" as="geometry"/>
                </mxCell>
                <mxCell id="IRgxSV-u55t7lliXxvqD-4" value="Customers" style="ellipse;shape=cloud;whiteSpace=wrap;html=1;fillColor=#dae8fc;strokeColor=#6c8ebf;" parent="1" vertex="1">
                    <mxGeometry x="560" y="330" width="180" height="120" as="geometry"/>
=======
                <mxCell id="IRgxSV-u55t7lliXxvqD-2" value="Auction House" style="ellipse;shape=cloud;whiteSpace=wrap;html=1;fillColor=#dae8fc;strokeColor=#6c8ebf;" vertex="1" parent="1">
                    <mxGeometry x="120" y="330" width="180" height="120" as="geometry"/>
                </mxCell>
                <mxCell id="IRgxSV-u55t7lliXxvqD-3" value="Sets of products" style="ellipse;shape=cloud;whiteSpace=wrap;html=1;fillColor=#dae8fc;strokeColor=#6c8ebf;" vertex="1" parent="1">
                    <mxGeometry x="315.5" y="150" width="180" height="120" as="geometry"/>
                </mxCell>
                <mxCell id="IRgxSV-u55t7lliXxvqD-4" value="Customers" style="ellipse;shape=cloud;whiteSpace=wrap;html=1;fillColor=#dae8fc;strokeColor=#6c8ebf;" vertex="1" parent="1">
                    <mxGeometry x="510" y="340" width="180" height="120" as="geometry"/>
>>>>>>> 031339579866e16f592af8d129042d718f9071ac
                </mxCell>
            </root>
        </mxGraphModel>
    </diagram>
    <diagram id="hTLwfF3sU6FEyIsyFD9O" name="Step2- ER Model">
<<<<<<< HEAD
        <mxGraphModel dx="1444" dy="790" grid="1" gridSize="10" guides="1" tooltips="1" connect="1" arrows="1" fold="1" page="1" pageScale="1" pageWidth="827" pageHeight="1169" math="0" shadow="0">
=======
        <mxGraphModel dx="963" dy="720" grid="1" gridSize="10" guides="1" tooltips="1" connect="1" arrows="1" fold="1" page="1" pageScale="1" pageWidth="827" pageHeight="1169" math="0" shadow="0">
>>>>>>> 031339579866e16f592af8d129042d718f9071ac
            <root>
                <mxCell id="JP4jf479MAIPDGqH67uS-0"/>
                <mxCell id="JP4jf479MAIPDGqH67uS-1" parent="JP4jf479MAIPDGqH67uS-0"/>
                <mxCell id="AXykQHfcHWRNYY1VcrUZ-69" value="" style="edgeStyle=orthogonalEdgeStyle;html=1;startArrow=none;startFill=0;endArrow=none;endFill=0;strokeColor=default;elbow=vertical;" edge="1" parent="JP4jf479MAIPDGqH67uS-1" source="AXykQHfcHWRNYY1VcrUZ-0" target="AXykQHfcHWRNYY1VcrUZ-64">
                    <mxGeometry relative="1" as="geometry"/>
                </mxCell>
                <mxCell id="AXykQHfcHWRNYY1VcrUZ-0" value="Customer" style="rounded=1;arcSize=10;whiteSpace=wrap;html=1;align=center;fillColor=#dae8fc;strokeColor=#6c8ebf;" vertex="1" parent="JP4jf479MAIPDGqH67uS-1">
                    <mxGeometry x="660" y="280" width="120" height="50" as="geometry"/>
                </mxCell>
                <mxCell id="AXykQHfcHWRNYY1VcrUZ-13" value="" style="edgeStyle=none;html=1;startArrow=none;startFill=0;endArrow=none;endFill=0;strokeColor=default;elbow=vertical;" edge="1" parent="JP4jf479MAIPDGqH67uS-1" source="AXykQHfcHWRNYY1VcrUZ-1" target="AXykQHfcHWRNYY1VcrUZ-8">
                    <mxGeometry relative="1" as="geometry"/>
                </mxCell>
                <mxCell id="AXykQHfcHWRNYY1VcrUZ-25" style="edgeStyle=orthogonalEdgeStyle;html=1;entryX=0;entryY=0.5;entryDx=0;entryDy=0;startArrow=none;startFill=0;endArrow=none;endFill=0;strokeColor=default;elbow=vertical;exitX=0.5;exitY=1;exitDx=0;exitDy=0;" edge="1" parent="JP4jf479MAIPDGqH67uS-1" source="AXykQHfcHWRNYY1VcrUZ-1" target="AXykQHfcHWRNYY1VcrUZ-6">
                    <mxGeometry relative="1" as="geometry">
                        <Array as="points">
                            <mxPoint x="100" y="210"/>
                        </Array>
                    </mxGeometry>
                </mxCell>
                <mxCell id="AXykQHfcHWRNYY1VcrUZ-1" value="Auction House" style="rounded=1;arcSize=10;whiteSpace=wrap;html=1;align=center;fillColor=#d5e8d4;strokeColor=#82b366;" vertex="1" parent="JP4jf479MAIPDGqH67uS-1">
                    <mxGeometry x="40" y="80" width="120" height="50" as="geometry"/>
                </mxCell>
                <mxCell id="AXykQHfcHWRNYY1VcrUZ-22" style="edgeStyle=none;html=1;startArrow=none;startFill=0;endArrow=none;endFill=0;strokeColor=default;elbow=vertical;" edge="1" parent="JP4jf479MAIPDGqH67uS-1" source="AXykQHfcHWRNYY1VcrUZ-2" target="AXykQHfcHWRNYY1VcrUZ-20">
                    <mxGeometry relative="1" as="geometry"/>
                </mxCell>
                <mxCell id="AXykQHfcHWRNYY1VcrUZ-75" style="edgeStyle=orthogonalEdgeStyle;html=1;entryX=0.5;entryY=0;entryDx=0;entryDy=0;startArrow=none;startFill=0;endArrow=none;endFill=0;strokeColor=default;elbow=vertical;exitX=0;exitY=0.75;exitDx=0;exitDy=0;" edge="1" parent="JP4jf479MAIPDGqH67uS-1" source="AXykQHfcHWRNYY1VcrUZ-2" target="AXykQHfcHWRNYY1VcrUZ-74">
                    <mxGeometry relative="1" as="geometry"/>
                </mxCell>
                <mxCell id="AXykQHfcHWRNYY1VcrUZ-2" value="Set of products" style="rounded=1;arcSize=10;whiteSpace=wrap;html=1;align=center;fillColor=#dae8fc;strokeColor=#6c8ebf;" vertex="1" parent="JP4jf479MAIPDGqH67uS-1">
                    <mxGeometry x="270" y="280" width="120" height="50" as="geometry"/>
                </mxCell>
                <mxCell id="AXykQHfcHWRNYY1VcrUZ-84" value="" style="edgeStyle=orthogonalEdgeStyle;html=1;startArrow=none;startFill=0;endArrow=none;endFill=0;strokeColor=default;elbow=vertical;" edge="1" parent="JP4jf479MAIPDGqH67uS-1" source="AXykQHfcHWRNYY1VcrUZ-4" target="AXykQHfcHWRNYY1VcrUZ-83">
                    <mxGeometry relative="1" as="geometry"/>
                </mxCell>
                <mxCell id="AXykQHfcHWRNYY1VcrUZ-4" value="Transaction" style="rounded=1;arcSize=10;whiteSpace=wrap;html=1;align=center;fillColor=#dae8fc;strokeColor=#6c8ebf;" vertex="1" parent="JP4jf479MAIPDGqH67uS-1">
                    <mxGeometry x="140" y="545" width="120" height="50" as="geometry"/>
                </mxCell>
                <mxCell id="AXykQHfcHWRNYY1VcrUZ-81" style="edgeStyle=orthogonalEdgeStyle;html=1;entryX=0.5;entryY=1;entryDx=0;entryDy=0;startArrow=none;startFill=0;endArrow=none;endFill=0;strokeColor=default;elbow=vertical;exitX=1;exitY=0.5;exitDx=0;exitDy=0;" edge="1" parent="JP4jf479MAIPDGqH67uS-1" source="AXykQHfcHWRNYY1VcrUZ-5" target="AXykQHfcHWRNYY1VcrUZ-79">
                    <mxGeometry relative="1" as="geometry"/>
                </mxCell>
                <mxCell id="AXykQHfcHWRNYY1VcrUZ-5" value="Delivery" style="rounded=1;arcSize=10;whiteSpace=wrap;html=1;align=center;fillColor=#dae8fc;strokeColor=#6c8ebf;" vertex="1" parent="JP4jf479MAIPDGqH67uS-1">
                    <mxGeometry x="430" y="550" width="120" height="45" as="geometry"/>
                </mxCell>
                <mxCell id="AXykQHfcHWRNYY1VcrUZ-18" style="edgeStyle=orthogonalEdgeStyle;html=1;entryX=0.5;entryY=0;entryDx=0;entryDy=0;startArrow=none;startFill=0;endArrow=none;endFill=0;strokeColor=default;elbow=vertical;" edge="1" parent="JP4jf479MAIPDGqH67uS-1" source="AXykQHfcHWRNYY1VcrUZ-6" target="AXykQHfcHWRNYY1VcrUZ-2">
                    <mxGeometry relative="1" as="geometry"/>
                </mxCell>
                <mxCell id="AXykQHfcHWRNYY1VcrUZ-6" value="has" style="shape=rhombus;perimeter=rhombusPerimeter;whiteSpace=wrap;html=1;align=center;fillColor=#ffe6cc;strokeColor=#d79b00;" vertex="1" parent="JP4jf479MAIPDGqH67uS-1">
                    <mxGeometry x="200" y="190" width="80" height="40" as="geometry"/>
                </mxCell>
                <mxCell id="AXykQHfcHWRNYY1VcrUZ-16" style="edgeStyle=orthogonalEdgeStyle;html=1;entryX=0.7;entryY=-0.02;entryDx=0;entryDy=0;entryPerimeter=0;startArrow=none;startFill=0;endArrow=none;endFill=0;strokeColor=default;elbow=vertical;" edge="1" parent="JP4jf479MAIPDGqH67uS-1" source="AXykQHfcHWRNYY1VcrUZ-7" target="AXykQHfcHWRNYY1VcrUZ-1">
                    <mxGeometry relative="1" as="geometry"/>
                </mxCell>
                <mxCell id="AXykQHfcHWRNYY1VcrUZ-7" value="name" style="ellipse;whiteSpace=wrap;html=1;align=center;" vertex="1" parent="JP4jf479MAIPDGqH67uS-1">
                    <mxGeometry x="150" y="30" width="70" height="30" as="geometry"/>
                </mxCell>
                <mxCell id="AXykQHfcHWRNYY1VcrUZ-8" value="license_nr" style="ellipse;whiteSpace=wrap;html=1;align=center;" vertex="1" parent="JP4jf479MAIPDGqH67uS-1">
                    <mxGeometry x="180" y="90" width="70" height="30" as="geometry"/>
                </mxCell>
                <mxCell id="AXykQHfcHWRNYY1VcrUZ-15" value="" style="edgeStyle=orthogonalEdgeStyle;html=1;startArrow=none;startFill=0;endArrow=none;endFill=0;strokeColor=default;elbow=vertical;" edge="1" parent="JP4jf479MAIPDGqH67uS-1" source="AXykQHfcHWRNYY1VcrUZ-14" target="AXykQHfcHWRNYY1VcrUZ-1">
                    <mxGeometry relative="1" as="geometry"/>
                </mxCell>
                <mxCell id="AXykQHfcHWRNYY1VcrUZ-14" value="legal_adress" style="ellipse;whiteSpace=wrap;html=1;align=center;" vertex="1" parent="JP4jf479MAIPDGqH67uS-1">
                    <mxGeometry x="20" y="20" width="80" height="30" as="geometry"/>
                </mxCell>
                <mxCell id="AXykQHfcHWRNYY1VcrUZ-26" style="edgeStyle=orthogonalEdgeStyle;html=1;entryX=0.75;entryY=0;entryDx=0;entryDy=0;startArrow=none;startFill=0;endArrow=none;endFill=0;strokeColor=default;elbow=vertical;" edge="1" parent="JP4jf479MAIPDGqH67uS-1" source="AXykQHfcHWRNYY1VcrUZ-19" target="AXykQHfcHWRNYY1VcrUZ-2">
                    <mxGeometry relative="1" as="geometry"/>
                </mxCell>
                <mxCell id="AXykQHfcHWRNYY1VcrUZ-19" value="catalog_number" style="ellipse;whiteSpace=wrap;html=1;align=center;" vertex="1" parent="JP4jf479MAIPDGqH67uS-1">
                    <mxGeometry x="330" y="220" width="100" height="30" as="geometry"/>
                </mxCell>
                <mxCell id="AXykQHfcHWRNYY1VcrUZ-23" style="edgeStyle=orthogonalEdgeStyle;html=1;startArrow=none;startFill=0;endArrow=none;endFill=0;strokeColor=default;elbow=vertical;entryX=0.5;entryY=0;entryDx=0;entryDy=0;exitX=0;exitY=0.5;exitDx=0;exitDy=0;" edge="1" parent="JP4jf479MAIPDGqH67uS-1" source="AXykQHfcHWRNYY1VcrUZ-20" target="AXykQHfcHWRNYY1VcrUZ-21">
                    <mxGeometry relative="1" as="geometry">
                        <mxPoint x="70" y="305" as="targetPoint"/>
                        <Array as="points">
                            <mxPoint x="90" y="305"/>
                        </Array>
                    </mxGeometry>
                </mxCell>
                <mxCell id="AXykQHfcHWRNYY1VcrUZ-20" value="contains" style="shape=rhombus;perimeter=rhombusPerimeter;whiteSpace=wrap;html=1;align=center;fillColor=#ffe6cc;strokeColor=#d79b00;" vertex="1" parent="JP4jf479MAIPDGqH67uS-1">
                    <mxGeometry x="140" y="285" width="80" height="40" as="geometry"/>
                </mxCell>
                <mxCell id="AXykQHfcHWRNYY1VcrUZ-21" value="Products" style="rounded=1;arcSize=10;whiteSpace=wrap;html=1;align=center;fillColor=#dae8fc;strokeColor=#6c8ebf;" vertex="1" parent="JP4jf479MAIPDGqH67uS-1">
                    <mxGeometry x="30" y="360" width="120" height="50" as="geometry"/>
                </mxCell>
                <mxCell id="AXykQHfcHWRNYY1VcrUZ-28" style="edgeStyle=orthogonalEdgeStyle;html=1;entryX=1;entryY=0.5;entryDx=0;entryDy=0;startArrow=none;startFill=0;endArrow=none;endFill=0;strokeColor=default;elbow=vertical;" edge="1" parent="JP4jf479MAIPDGqH67uS-1" source="AXykQHfcHWRNYY1VcrUZ-27" target="AXykQHfcHWRNYY1VcrUZ-2">
                    <mxGeometry relative="1" as="geometry"/>
                </mxCell>
                <mxCell id="AXykQHfcHWRNYY1VcrUZ-27" value="highest_bid" style="ellipse;whiteSpace=wrap;html=1;align=center;" vertex="1" parent="JP4jf479MAIPDGqH67uS-1">
                    <mxGeometry x="410" y="255" width="70" height="30" as="geometry"/>
                </mxCell>
                <mxCell id="AXykQHfcHWRNYY1VcrUZ-30" style="edgeStyle=orthogonalEdgeStyle;html=1;entryX=0.5;entryY=1;entryDx=0;entryDy=0;startArrow=none;startFill=0;endArrow=none;endFill=0;strokeColor=default;elbow=vertical;" edge="1" parent="JP4jf479MAIPDGqH67uS-1" source="AXykQHfcHWRNYY1VcrUZ-29" target="AXykQHfcHWRNYY1VcrUZ-2">
                    <mxGeometry relative="1" as="geometry"/>
                </mxCell>
                <mxCell id="AXykQHfcHWRNYY1VcrUZ-29" value="remaining_auction_time" style="ellipse;whiteSpace=wrap;html=1;align=center;" vertex="1" parent="JP4jf479MAIPDGqH67uS-1">
                    <mxGeometry x="270" y="350" width="150" height="20" as="geometry"/>
                </mxCell>
                <mxCell id="AXykQHfcHWRNYY1VcrUZ-38" style="edgeStyle=orthogonalEdgeStyle;html=1;entryX=0.25;entryY=0;entryDx=0;entryDy=0;startArrow=none;startFill=0;endArrow=none;endFill=0;strokeColor=default;elbow=vertical;" edge="1" parent="JP4jf479MAIPDGqH67uS-1" source="AXykQHfcHWRNYY1VcrUZ-33" target="AXykQHfcHWRNYY1VcrUZ-21">
                    <mxGeometry relative="1" as="geometry"/>
                </mxCell>
                <mxCell id="AXykQHfcHWRNYY1VcrUZ-33" value="name" style="ellipse;whiteSpace=wrap;html=1;align=center;" vertex="1" parent="JP4jf479MAIPDGqH67uS-1">
                    <mxGeometry x="20" y="290" width="60" height="30" as="geometry"/>
                </mxCell>
                <mxCell id="AXykQHfcHWRNYY1VcrUZ-39" style="edgeStyle=orthogonalEdgeStyle;html=1;entryX=0.442;entryY=0.98;entryDx=0;entryDy=0;entryPerimeter=0;startArrow=none;startFill=0;endArrow=none;endFill=0;strokeColor=default;elbow=vertical;" edge="1" parent="JP4jf479MAIPDGqH67uS-1" source="AXykQHfcHWRNYY1VcrUZ-34" target="AXykQHfcHWRNYY1VcrUZ-21">
                    <mxGeometry relative="1" as="geometry"/>
                </mxCell>
                <mxCell id="AXykQHfcHWRNYY1VcrUZ-34" value="code" style="ellipse;whiteSpace=wrap;html=1;align=center;" vertex="1" parent="JP4jf479MAIPDGqH67uS-1">
                    <mxGeometry x="10" y="430" width="70" height="30" as="geometry"/>
                </mxCell>
                <mxCell id="AXykQHfcHWRNYY1VcrUZ-40" style="edgeStyle=orthogonalEdgeStyle;html=1;entryX=0.658;entryY=1.02;entryDx=0;entryDy=0;entryPerimeter=0;startArrow=none;startFill=0;endArrow=none;endFill=0;strokeColor=default;elbow=vertical;" edge="1" parent="JP4jf479MAIPDGqH67uS-1" source="AXykQHfcHWRNYY1VcrUZ-35" target="AXykQHfcHWRNYY1VcrUZ-21">
                    <mxGeometry relative="1" as="geometry">
                        <Array as="points">
                            <mxPoint x="109" y="435"/>
                        </Array>
                    </mxGeometry>
                </mxCell>
                <mxCell id="AXykQHfcHWRNYY1VcrUZ-35" value="description" style="ellipse;whiteSpace=wrap;html=1;align=center;" vertex="1" parent="JP4jf479MAIPDGqH67uS-1">
                    <mxGeometry x="119" y="420" width="81" height="30" as="geometry"/>
                </mxCell>
                <mxCell id="AXykQHfcHWRNYY1VcrUZ-43" style="edgeStyle=orthogonalEdgeStyle;html=1;entryX=1;entryY=0.5;entryDx=0;entryDy=0;startArrow=none;startFill=0;endArrow=none;endFill=0;strokeColor=default;elbow=vertical;" edge="1" parent="JP4jf479MAIPDGqH67uS-1" source="AXykQHfcHWRNYY1VcrUZ-36" target="AXykQHfcHWRNYY1VcrUZ-21">
                    <mxGeometry relative="1" as="geometry"/>
                </mxCell>
                <mxCell id="AXykQHfcHWRNYY1VcrUZ-36" value="img" style="ellipse;whiteSpace=wrap;html=1;align=center;" vertex="1" parent="JP4jf479MAIPDGqH67uS-1">
                    <mxGeometry x="180" y="380" width="60" height="20" as="geometry"/>
                </mxCell>
                <mxCell id="AXykQHfcHWRNYY1VcrUZ-48" style="edgeStyle=orthogonalEdgeStyle;html=1;entryX=0.408;entryY=0.02;entryDx=0;entryDy=0;entryPerimeter=0;startArrow=none;startFill=0;endArrow=none;endFill=0;strokeColor=default;elbow=vertical;" edge="1" parent="JP4jf479MAIPDGqH67uS-1" source="AXykQHfcHWRNYY1VcrUZ-44" target="AXykQHfcHWRNYY1VcrUZ-0">
                    <mxGeometry relative="1" as="geometry"/>
                </mxCell>
                <mxCell id="AXykQHfcHWRNYY1VcrUZ-44" value="user_name" style="ellipse;whiteSpace=wrap;html=1;align=center;" vertex="1" parent="JP4jf479MAIPDGqH67uS-1">
                    <mxGeometry x="620" y="225" width="70" height="30" as="geometry"/>
                </mxCell>
                <mxCell id="AXykQHfcHWRNYY1VcrUZ-51" style="edgeStyle=orthogonalEdgeStyle;html=1;entryX=0.833;entryY=0;entryDx=0;entryDy=0;entryPerimeter=0;startArrow=none;startFill=0;endArrow=none;endFill=0;strokeColor=default;elbow=vertical;" edge="1" parent="JP4jf479MAIPDGqH67uS-1" source="AXykQHfcHWRNYY1VcrUZ-45" target="AXykQHfcHWRNYY1VcrUZ-0">
                    <mxGeometry relative="1" as="geometry"/>
                </mxCell>
                <mxCell id="AXykQHfcHWRNYY1VcrUZ-45" value="e-mail" style="ellipse;whiteSpace=wrap;html=1;align=center;" vertex="1" parent="JP4jf479MAIPDGqH67uS-1">
                    <mxGeometry x="740" y="230" width="70" height="30" as="geometry"/>
                </mxCell>
                <mxCell id="AXykQHfcHWRNYY1VcrUZ-50" style="edgeStyle=orthogonalEdgeStyle;html=1;entryX=0.583;entryY=-0.02;entryDx=0;entryDy=0;entryPerimeter=0;startArrow=none;startFill=0;endArrow=none;endFill=0;strokeColor=default;elbow=vertical;exitX=0;exitY=1;exitDx=0;exitDy=0;" edge="1" parent="JP4jf479MAIPDGqH67uS-1" source="AXykQHfcHWRNYY1VcrUZ-46" target="AXykQHfcHWRNYY1VcrUZ-0">
                    <mxGeometry relative="1" as="geometry"/>
                </mxCell>
                <mxCell id="AXykQHfcHWRNYY1VcrUZ-46" value="password" style="ellipse;whiteSpace=wrap;html=1;align=center;" vertex="1" parent="JP4jf479MAIPDGqH67uS-1">
                    <mxGeometry x="720" y="195" width="70" height="30" as="geometry"/>
                </mxCell>
                <mxCell id="AXykQHfcHWRNYY1VcrUZ-49" style="edgeStyle=orthogonalEdgeStyle;html=1;entryX=0.5;entryY=0;entryDx=0;entryDy=0;startArrow=none;startFill=0;endArrow=none;endFill=0;strokeColor=default;elbow=vertical;" edge="1" parent="JP4jf479MAIPDGqH67uS-1" source="AXykQHfcHWRNYY1VcrUZ-47" target="AXykQHfcHWRNYY1VcrUZ-0">
                    <mxGeometry relative="1" as="geometry">
                        <Array as="points">
                            <mxPoint x="700" y="240"/>
                            <mxPoint x="720" y="240"/>
                        </Array>
                    </mxGeometry>
                </mxCell>
                <mxCell id="AXykQHfcHWRNYY1VcrUZ-47" value="name" style="ellipse;whiteSpace=wrap;html=1;align=center;" vertex="1" parent="JP4jf479MAIPDGqH67uS-1">
                    <mxGeometry x="650" y="170" width="70" height="30" as="geometry"/>
                </mxCell>
                <mxCell id="AXykQHfcHWRNYY1VcrUZ-55" style="edgeStyle=orthogonalEdgeStyle;html=1;entryX=0;entryY=0.5;entryDx=0;entryDy=0;startArrow=none;startFill=0;endArrow=none;endFill=0;strokeColor=default;elbow=vertical;" edge="1" parent="JP4jf479MAIPDGqH67uS-1" source="AXykQHfcHWRNYY1VcrUZ-52" target="AXykQHfcHWRNYY1VcrUZ-0">
                    <mxGeometry relative="1" as="geometry"/>
                </mxCell>
                <mxCell id="AXykQHfcHWRNYY1VcrUZ-56" style="edgeStyle=orthogonalEdgeStyle;html=1;entryX=1;entryY=0.75;entryDx=0;entryDy=0;startArrow=none;startFill=0;endArrow=none;endFill=0;strokeColor=default;elbow=vertical;" edge="1" parent="JP4jf479MAIPDGqH67uS-1" source="AXykQHfcHWRNYY1VcrUZ-52" target="AXykQHfcHWRNYY1VcrUZ-2">
                    <mxGeometry relative="1" as="geometry"/>
                </mxCell>
                <mxCell id="AXykQHfcHWRNYY1VcrUZ-52" value="bids" style="shape=rhombus;perimeter=rhombusPerimeter;whiteSpace=wrap;html=1;align=center;fillColor=#ffe6cc;strokeColor=#d79b00;" vertex="1" parent="JP4jf479MAIPDGqH67uS-1">
                    <mxGeometry x="500" y="290" width="80" height="40" as="geometry"/>
                </mxCell>
                <mxCell id="AXykQHfcHWRNYY1VcrUZ-61" style="edgeStyle=orthogonalEdgeStyle;html=1;entryX=0.5;entryY=0;entryDx=0;entryDy=0;startArrow=none;startFill=0;endArrow=none;endFill=0;strokeColor=default;elbow=vertical;" edge="1" parent="JP4jf479MAIPDGqH67uS-1" source="AXykQHfcHWRNYY1VcrUZ-58" target="AXykQHfcHWRNYY1VcrUZ-52">
                    <mxGeometry relative="1" as="geometry"/>
                </mxCell>
                <mxCell id="AXykQHfcHWRNYY1VcrUZ-58" value="amount" style="ellipse;whiteSpace=wrap;html=1;align=center;" vertex="1" parent="JP4jf479MAIPDGqH67uS-1">
                    <mxGeometry x="510" y="240" width="70" height="30" as="geometry"/>
                </mxCell>
                <mxCell id="AXykQHfcHWRNYY1VcrUZ-62" style="edgeStyle=orthogonalEdgeStyle;html=1;entryX=1;entryY=1;entryDx=0;entryDy=0;startArrow=none;startFill=0;endArrow=none;endFill=0;strokeColor=default;elbow=vertical;" edge="1" parent="JP4jf479MAIPDGqH67uS-1" source="AXykQHfcHWRNYY1VcrUZ-59" target="AXykQHfcHWRNYY1VcrUZ-52">
                    <mxGeometry relative="1" as="geometry"/>
                </mxCell>
                <mxCell id="AXykQHfcHWRNYY1VcrUZ-59" value="bid_date" style="ellipse;whiteSpace=wrap;html=1;align=center;" vertex="1" parent="JP4jf479MAIPDGqH67uS-1">
                    <mxGeometry x="530" y="350" width="70" height="30" as="geometry"/>
                </mxCell>
                <mxCell id="AXykQHfcHWRNYY1VcrUZ-63" style="edgeStyle=orthogonalEdgeStyle;html=1;entryX=0;entryY=1;entryDx=0;entryDy=0;startArrow=none;startFill=0;endArrow=none;endFill=0;strokeColor=default;elbow=vertical;" edge="1" parent="JP4jf479MAIPDGqH67uS-1" source="AXykQHfcHWRNYY1VcrUZ-60" target="AXykQHfcHWRNYY1VcrUZ-52">
                    <mxGeometry relative="1" as="geometry"/>
                </mxCell>
                <mxCell id="AXykQHfcHWRNYY1VcrUZ-60" value="bid_hour" style="ellipse;whiteSpace=wrap;html=1;align=center;" vertex="1" parent="JP4jf479MAIPDGqH67uS-1">
                    <mxGeometry x="460" y="330" width="70" height="30" as="geometry"/>
                </mxCell>
                <mxCell id="AXykQHfcHWRNYY1VcrUZ-70" value="" style="edgeStyle=orthogonalEdgeStyle;html=1;startArrow=none;startFill=0;endArrow=none;endFill=0;strokeColor=default;elbow=vertical;" edge="1" parent="JP4jf479MAIPDGqH67uS-1" source="AXykQHfcHWRNYY1VcrUZ-64" target="AXykQHfcHWRNYY1VcrUZ-65">
                    <mxGeometry relative="1" as="geometry"/>
                </mxCell>
                <mxCell id="AXykQHfcHWRNYY1VcrUZ-64" value="has" style="shape=rhombus;perimeter=rhombusPerimeter;whiteSpace=wrap;html=1;align=center;fillColor=#ffe6cc;strokeColor=#d79b00;" vertex="1" parent="JP4jf479MAIPDGqH67uS-1">
                    <mxGeometry x="680" y="360" width="80" height="40" as="geometry"/>
                </mxCell>
                <mxCell id="AXykQHfcHWRNYY1VcrUZ-65" value="&amp;nbsp;Payment Method" style="rounded=1;arcSize=10;whiteSpace=wrap;html=1;align=center;fillColor=#dae8fc;strokeColor=#6c8ebf;" vertex="1" parent="JP4jf479MAIPDGqH67uS-1">
                    <mxGeometry x="660" y="450" width="120" height="50" as="geometry"/>
                </mxCell>
                <mxCell id="AXykQHfcHWRNYY1VcrUZ-67" style="edgeStyle=orthogonalEdgeStyle;html=1;entryX=1;entryY=0.5;entryDx=0;entryDy=0;startArrow=none;startFill=0;endArrow=none;endFill=0;strokeColor=default;elbow=vertical;exitX=1;exitY=0.5;exitDx=0;exitDy=0;" edge="1" parent="JP4jf479MAIPDGqH67uS-1" source="AXykQHfcHWRNYY1VcrUZ-66" target="AXykQHfcHWRNYY1VcrUZ-0">
                    <mxGeometry relative="1" as="geometry"/>
                </mxCell>
                <mxCell id="AXykQHfcHWRNYY1VcrUZ-66" value="bidding_record" style="ellipse;whiteSpace=wrap;html=1;align=center;" vertex="1" parent="JP4jf479MAIPDGqH67uS-1">
                    <mxGeometry x="705" y="130" width="100" height="30" as="geometry"/>
                </mxCell>
                <mxCell id="AXykQHfcHWRNYY1VcrUZ-72" value="" style="edgeStyle=orthogonalEdgeStyle;html=1;startArrow=none;startFill=0;endArrow=none;endFill=0;strokeColor=default;elbow=vertical;" edge="1" parent="JP4jf479MAIPDGqH67uS-1" source="AXykQHfcHWRNYY1VcrUZ-71" target="AXykQHfcHWRNYY1VcrUZ-65">
                    <mxGeometry relative="1" as="geometry"/>
                </mxCell>
                <mxCell id="AXykQHfcHWRNYY1VcrUZ-71" value="verified" style="shape=rhombus;perimeter=rhombusPerimeter;whiteSpace=wrap;html=1;align=center;fillColor=#ffe6cc;strokeColor=#d79b00;" vertex="1" parent="JP4jf479MAIPDGqH67uS-1">
                    <mxGeometry x="680" y="545" width="80" height="40" as="geometry"/>
                </mxCell>
                <mxCell id="AXykQHfcHWRNYY1VcrUZ-76" style="edgeStyle=orthogonalEdgeStyle;html=1;entryX=0.5;entryY=0;entryDx=0;entryDy=0;startArrow=none;startFill=0;endArrow=none;endFill=0;strokeColor=default;elbow=vertical;" edge="1" parent="JP4jf479MAIPDGqH67uS-1" source="AXykQHfcHWRNYY1VcrUZ-74" target="AXykQHfcHWRNYY1VcrUZ-4">
                    <mxGeometry relative="1" as="geometry"/>
                </mxCell>
                <mxCell id="AXykQHfcHWRNYY1VcrUZ-74" value="creates a bid" style="shape=rhombus;perimeter=rhombusPerimeter;whiteSpace=wrap;html=1;align=center;fillColor=#ffe6cc;strokeColor=#d79b00;" vertex="1" parent="JP4jf479MAIPDGqH67uS-1">
                    <mxGeometry x="230" y="430" width="100" height="50" as="geometry"/>
                </mxCell>
                <mxCell id="AXykQHfcHWRNYY1VcrUZ-82" style="edgeStyle=orthogonalEdgeStyle;html=1;entryX=0;entryY=0.75;entryDx=0;entryDy=0;startArrow=none;startFill=0;endArrow=none;endFill=0;strokeColor=default;elbow=vertical;" edge="1" parent="JP4jf479MAIPDGqH67uS-1" source="AXykQHfcHWRNYY1VcrUZ-79" target="AXykQHfcHWRNYY1VcrUZ-0">
                    <mxGeometry relative="1" as="geometry"/>
                </mxCell>
                <mxCell id="AXykQHfcHWRNYY1VcrUZ-79" value="ships set of products" style="shape=rhombus;perimeter=rhombusPerimeter;whiteSpace=wrap;html=1;align=center;fillColor=#ffe6cc;strokeColor=#d79b00;" vertex="1" parent="JP4jf479MAIPDGqH67uS-1">
                    <mxGeometry x="530" y="430" width="110" height="60" as="geometry"/>
                </mxCell>
                <mxCell id="AXykQHfcHWRNYY1VcrUZ-85" value="" style="edgeStyle=orthogonalEdgeStyle;html=1;startArrow=none;startFill=0;endArrow=none;endFill=0;strokeColor=default;elbow=vertical;" edge="1" parent="JP4jf479MAIPDGqH67uS-1" source="AXykQHfcHWRNYY1VcrUZ-83" target="AXykQHfcHWRNYY1VcrUZ-5">
                    <mxGeometry relative="1" as="geometry"/>
                </mxCell>
                <mxCell id="AXykQHfcHWRNYY1VcrUZ-83" value="processes" style="shape=rhombus;perimeter=rhombusPerimeter;whiteSpace=wrap;html=1;align=center;fillColor=#ffe6cc;strokeColor=#d79b00;" vertex="1" parent="JP4jf479MAIPDGqH67uS-1">
                    <mxGeometry x="300" y="550" width="100" height="50" as="geometry"/>
                </mxCell>
                <mxCell id="0uSpiDYdDSWRw0dTM9Pw-2" style="edgeStyle=orthogonalEdgeStyle;html=1;entryX=0;entryY=0;entryDx=0;entryDy=0;startArrow=none;startFill=0;endArrow=none;endFill=0;strokeColor=default;elbow=vertical;" edge="1" parent="JP4jf479MAIPDGqH67uS-1" source="0uSpiDYdDSWRw0dTM9Pw-0" target="AXykQHfcHWRNYY1VcrUZ-52">
                    <mxGeometry relative="1" as="geometry">
                        <Array as="points">
                            <mxPoint x="490" y="270"/>
                            <mxPoint x="520" y="270"/>
                        </Array>
                    </mxGeometry>
                </mxCell>
                <mxCell id="0uSpiDYdDSWRw0dTM9Pw-0" value="bid_id" style="ellipse;whiteSpace=wrap;html=1;align=center;" vertex="1" parent="JP4jf479MAIPDGqH67uS-1">
                    <mxGeometry x="470" y="190" width="70" height="30" as="geometry"/>
                </mxCell>
                <mxCell id="0uSpiDYdDSWRw0dTM9Pw-4" style="edgeStyle=orthogonalEdgeStyle;html=1;entryX=0.5;entryY=1;entryDx=0;entryDy=0;startArrow=none;startFill=0;endArrow=none;endFill=0;strokeColor=default;elbow=vertical;" edge="1" parent="JP4jf479MAIPDGqH67uS-1" source="0uSpiDYdDSWRw0dTM9Pw-3" target="AXykQHfcHWRNYY1VcrUZ-21">
                    <mxGeometry relative="1" as="geometry"/>
                </mxCell>
                <mxCell id="0uSpiDYdDSWRw0dTM9Pw-3" value="fk_catalog_number" style="ellipse;whiteSpace=wrap;html=1;align=center;fillColor=#e1d5e7;strokeColor=#9673a6;" vertex="1" parent="JP4jf479MAIPDGqH67uS-1">
                    <mxGeometry x="50" y="470" width="120" height="40" as="geometry"/>
                </mxCell>
                <mxCell id="ZZfVQeldVmKACsQmP02J-1" style="edgeStyle=orthogonalEdgeStyle;html=1;entryX=0;entryY=0.25;entryDx=0;entryDy=0;startArrow=none;startFill=0;endArrow=none;endFill=0;strokeColor=default;elbow=vertical;exitX=0;exitY=1;exitDx=0;exitDy=0;" edge="1" parent="JP4jf479MAIPDGqH67uS-1" source="ZZfVQeldVmKACsQmP02J-0" target="AXykQHfcHWRNYY1VcrUZ-0">
                    <mxGeometry relative="1" as="geometry"/>
                </mxCell>
                <mxCell id="ZZfVQeldVmKACsQmP02J-0" value="user_id" style="ellipse;whiteSpace=wrap;html=1;align=center;" vertex="1" parent="JP4jf479MAIPDGqH67uS-1">
                    <mxGeometry x="600" y="120" width="70" height="30" as="geometry"/>
                </mxCell>
                <mxCell id="zQ6Zur4_XXBffw-8pjN_-1" style="edgeStyle=orthogonalEdgeStyle;html=1;startArrow=none;startFill=0;endArrow=none;endFill=0;strokeColor=default;elbow=vertical;" edge="1" parent="JP4jf479MAIPDGqH67uS-1" source="zQ6Zur4_XXBffw-8pjN_-0">
                    <mxGeometry relative="1" as="geometry">
                        <mxPoint x="710" y="280" as="targetPoint"/>
                        <Array as="points">
                            <mxPoint x="590" y="85"/>
                            <mxPoint x="590" y="280"/>
                        </Array>
                    </mxGeometry>
                </mxCell>
                <mxCell id="zQ6Zur4_XXBffw-8pjN_-0" value="user_address" style="ellipse;whiteSpace=wrap;html=1;align=center;" vertex="1" parent="JP4jf479MAIPDGqH67uS-1">
                    <mxGeometry x="660" y="70" width="100" height="30" as="geometry"/>
                </mxCell>
                <mxCell id="xMl_KWGTjTN2YmaGmdfs-1" value="" style="edgeStyle=orthogonalEdgeStyle;html=1;startArrow=none;startFill=0;endArrow=none;endFill=0;strokeColor=default;elbow=vertical;" edge="1" parent="JP4jf479MAIPDGqH67uS-1" source="vefcejrMZxkEzpa-W8nm-0" target="AXykQHfcHWRNYY1VcrUZ-5">
                    <mxGeometry relative="1" as="geometry"/>
                </mxCell>
                <mxCell id="vefcejrMZxkEzpa-W8nm-0" value="fk_bid_id" style="ellipse;whiteSpace=wrap;html=1;align=center;fillColor=#e1d5e7;strokeColor=#9673a6;" vertex="1" parent="JP4jf479MAIPDGqH67uS-1">
                    <mxGeometry x="430" y="480" width="70" height="30" as="geometry"/>
                </mxCell>
                <mxCell id="YDlMGjD2fQjWeMWoTwIc-1" style="edgeStyle=orthogonalEdgeStyle;html=1;entryX=0.75;entryY=1;entryDx=0;entryDy=0;startArrow=none;startFill=0;endArrow=none;endFill=0;strokeColor=default;elbow=vertical;" edge="1" parent="JP4jf479MAIPDGqH67uS-1" source="xMl_KWGTjTN2YmaGmdfs-0" target="AXykQHfcHWRNYY1VcrUZ-5">
                    <mxGeometry relative="1" as="geometry"/>
                </mxCell>
                <mxCell id="xMl_KWGTjTN2YmaGmdfs-0" value="fk_user_id" style="ellipse;whiteSpace=wrap;html=1;align=center;fillColor=#e1d5e7;strokeColor=#9673a6;" vertex="1" parent="JP4jf479MAIPDGqH67uS-1">
                    <mxGeometry x="470" y="660" width="70" height="30" as="geometry"/>
                </mxCell>
                <mxCell id="9f8B2IL0q-CFco4X9kQk-1" style="edgeStyle=orthogonalEdgeStyle;html=1;entryX=0;entryY=0.5;entryDx=0;entryDy=0;startArrow=none;startFill=0;endArrow=none;endFill=0;strokeColor=default;elbow=vertical;" edge="1" parent="JP4jf479MAIPDGqH67uS-1" source="9f8B2IL0q-CFco4X9kQk-0" target="AXykQHfcHWRNYY1VcrUZ-65">
                    <mxGeometry relative="1" as="geometry"/>
                </mxCell>
                <mxCell id="9f8B2IL0q-CFco4X9kQk-0" value="fk_user_id" style="ellipse;whiteSpace=wrap;html=1;align=center;fillColor=#e1d5e7;strokeColor=#9673a6;" vertex="1" parent="JP4jf479MAIPDGqH67uS-1">
                    <mxGeometry x="610" y="515" width="70" height="30" as="geometry"/>
                </mxCell>
                <mxCell id="skhaxK6YzAAN3bhxk5hg-1" style="edgeStyle=orthogonalEdgeStyle;html=1;entryX=1;entryY=0.5;entryDx=0;entryDy=0;startArrow=none;startFill=0;endArrow=none;endFill=0;strokeColor=default;elbow=vertical;" edge="1" parent="JP4jf479MAIPDGqH67uS-1" source="skhaxK6YzAAN3bhxk5hg-0" target="AXykQHfcHWRNYY1VcrUZ-65">
                    <mxGeometry relative="1" as="geometry">
                        <Array as="points">
                            <mxPoint x="760" y="570"/>
                            <mxPoint x="790" y="570"/>
                            <mxPoint x="790" y="475"/>
                        </Array>
                    </mxGeometry>
                </mxCell>
                <mxCell id="skhaxK6YzAAN3bhxk5hg-0" value="payment_type" style="ellipse;whiteSpace=wrap;html=1;align=center;" vertex="1" parent="JP4jf479MAIPDGqH67uS-1">
                    <mxGeometry x="710" y="620" width="100" height="30" as="geometry"/>
                </mxCell>
                <mxCell id="skhaxK6YzAAN3bhxk5hg-6" style="edgeStyle=orthogonalEdgeStyle;html=1;startArrow=none;startFill=0;endArrow=none;endFill=0;strokeColor=default;elbow=vertical;entryX=0.917;entryY=1.011;entryDx=0;entryDy=0;entryPerimeter=0;" edge="1" parent="JP4jf479MAIPDGqH67uS-1" source="skhaxK6YzAAN3bhxk5hg-2" target="AXykQHfcHWRNYY1VcrUZ-5">
                    <mxGeometry relative="1" as="geometry"/>
                </mxCell>
                <mxCell id="skhaxK6YzAAN3bhxk5hg-2" value="delivery_type" style="ellipse;whiteSpace=wrap;html=1;align=center;" vertex="1" parent="JP4jf479MAIPDGqH67uS-1">
                    <mxGeometry x="550" y="650" width="100" height="30" as="geometry"/>
                </mxCell>
                <mxCell id="YDlMGjD2fQjWeMWoTwIc-2" style="edgeStyle=orthogonalEdgeStyle;html=1;entryX=0.333;entryY=0.989;entryDx=0;entryDy=0;entryPerimeter=0;startArrow=none;startFill=0;endArrow=none;endFill=0;strokeColor=default;elbow=vertical;" edge="1" parent="JP4jf479MAIPDGqH67uS-1" source="MA64QzUr7DdAnKtj1klO-0" target="AXykQHfcHWRNYY1VcrUZ-5">
                    <mxGeometry relative="1" as="geometry"/>
                </mxCell>
                <mxCell id="MA64QzUr7DdAnKtj1klO-0" value="fk_user_address" style="ellipse;whiteSpace=wrap;html=1;align=center;fillColor=#e1d5e7;strokeColor=#9673a6;" vertex="1" parent="JP4jf479MAIPDGqH67uS-1">
                    <mxGeometry x="400" y="620" width="90" height="25" as="geometry"/>
                </mxCell>
                <mxCell id="UCO9i5W3NIfiD0fQlfuW-1" style="edgeStyle=orthogonalEdgeStyle;html=1;startArrow=none;startFill=0;endArrow=none;endFill=0;strokeColor=default;elbow=vertical;" edge="1" parent="JP4jf479MAIPDGqH67uS-1" source="NCkvHfkGonf4oX2djk62-0" target="AXykQHfcHWRNYY1VcrUZ-4">
                    <mxGeometry relative="1" as="geometry"/>
                </mxCell>
                <mxCell id="NCkvHfkGonf4oX2djk62-0" value="fk_bid_id" style="ellipse;whiteSpace=wrap;html=1;align=center;fillColor=#e1d5e7;strokeColor=#9673a6;" vertex="1" parent="JP4jf479MAIPDGqH67uS-1">
                    <mxGeometry x="40" y="560" width="70" height="30" as="geometry"/>
                </mxCell>
                <mxCell id="UCO9i5W3NIfiD0fQlfuW-2" style="edgeStyle=orthogonalEdgeStyle;html=1;startArrow=none;startFill=0;endArrow=none;endFill=0;strokeColor=default;elbow=vertical;" edge="1" parent="JP4jf479MAIPDGqH67uS-1" source="UCO9i5W3NIfiD0fQlfuW-0" target="AXykQHfcHWRNYY1VcrUZ-4">
                    <mxGeometry relative="1" as="geometry"/>
                </mxCell>
                <mxCell id="UCO9i5W3NIfiD0fQlfuW-0" value="fk_user_id" style="ellipse;whiteSpace=wrap;html=1;align=center;fillColor=#e1d5e7;strokeColor=#9673a6;" vertex="1" parent="JP4jf479MAIPDGqH67uS-1">
                    <mxGeometry x="80" y="617.5" width="70" height="30" as="geometry"/>
                </mxCell>
                <mxCell id="x6sLqrqg8Wi7R2LcWqV--1" style="edgeStyle=orthogonalEdgeStyle;html=1;entryX=0.75;entryY=1;entryDx=0;entryDy=0;startArrow=none;startFill=0;endArrow=none;endFill=0;strokeColor=default;elbow=vertical;" edge="1" parent="JP4jf479MAIPDGqH67uS-1" source="x6sLqrqg8Wi7R2LcWqV--0" target="AXykQHfcHWRNYY1VcrUZ-4">
                    <mxGeometry relative="1" as="geometry"/>
                </mxCell>
                <mxCell id="x6sLqrqg8Wi7R2LcWqV--0" value="fk_payment_type" style="ellipse;whiteSpace=wrap;html=1;align=center;fillColor=#e1d5e7;strokeColor=#9673a6;" vertex="1" parent="JP4jf479MAIPDGqH67uS-1">
                    <mxGeometry x="190" y="630" width="100" height="30" as="geometry"/>
                </mxCell>
                <mxCell id="WigE3XRgRrvEVrQ_7stm-2" style="edgeStyle=orthogonalEdgeStyle;html=1;startArrow=none;startFill=0;endArrow=none;endFill=0;strokeColor=default;elbow=vertical;entryX=0.5;entryY=1;entryDx=0;entryDy=0;" edge="1" parent="JP4jf479MAIPDGqH67uS-1" source="WigE3XRgRrvEVrQ_7stm-0" target="AXykQHfcHWRNYY1VcrUZ-4">
                    <mxGeometry relative="1" as="geometry">
                        <Array as="points">
                            <mxPoint x="155" y="630"/>
                            <mxPoint x="210" y="630"/>
                            <mxPoint x="210" y="595"/>
                        </Array>
                    </mxGeometry>
                </mxCell>
                <mxCell id="WigE3XRgRrvEVrQ_7stm-0" value="transaction_id" style="ellipse;whiteSpace=wrap;html=1;align=center;" vertex="1" parent="JP4jf479MAIPDGqH67uS-1">
                    <mxGeometry x="110" y="670" width="90" height="40" as="geometry"/>
                </mxCell>
            </root>
        </mxGraphModel>
    </diagram>
    <diagram id="yKbAttKq7dpx1Gm8LJRe" name="Step3- UML">
<<<<<<< HEAD
        <mxGraphModel dx="1444" dy="790" grid="1" gridSize="10" guides="1" tooltips="1" connect="1" arrows="1" fold="1" page="1" pageScale="1" pageWidth="827" pageHeight="1169" math="0" shadow="0">
=======
        <mxGraphModel dx="1014" dy="758" grid="1" gridSize="10" guides="1" tooltips="1" connect="1" arrows="1" fold="1" page="1" pageScale="1" pageWidth="827" pageHeight="1169" math="0" shadow="0">
>>>>>>> 031339579866e16f592af8d129042d718f9071ac
            <root>
                <mxCell id="BrkPRGftGvAoWFTweqpY-0"/>
                <mxCell id="BrkPRGftGvAoWFTweqpY-1" parent="BrkPRGftGvAoWFTweqpY-0"/>
                <mxCell id="CnfUTqY_7m5ZCIH7HR68-0" value="Auction House" style="swimlane;fontStyle=1;align=center;verticalAlign=top;childLayout=stackLayout;horizontal=1;startSize=26;horizontalStack=0;resizeParent=1;resizeParentMax=0;resizeLast=0;collapsible=1;marginBottom=0;fillColor=#d5e8d4;strokeColor=#82b366;" vertex="1" parent="BrkPRGftGvAoWFTweqpY-1">
                    <mxGeometry x="40" y="40" width="160" height="104" as="geometry"/>
                </mxCell>
                <mxCell id="CnfUTqY_7m5ZCIH7HR68-1" value="+ name: string" style="text;strokeColor=none;fillColor=none;align=left;verticalAlign=top;spacingLeft=4;spacingRight=4;overflow=hidden;rotatable=0;points=[[0,0.5],[1,0.5]];portConstraint=eastwest;" vertex="1" parent="CnfUTqY_7m5ZCIH7HR68-0">
                    <mxGeometry y="26" width="160" height="26" as="geometry"/>
                </mxCell>
                <mxCell id="CnfUTqY_7m5ZCIH7HR68-3" value="+ legal_adress: string" style="text;strokeColor=none;fillColor=none;align=left;verticalAlign=top;spacingLeft=4;spacingRight=4;overflow=hidden;rotatable=0;points=[[0,0.5],[1,0.5]];portConstraint=eastwest;" vertex="1" parent="CnfUTqY_7m5ZCIH7HR68-0">
                    <mxGeometry y="52" width="160" height="26" as="geometry"/>
                </mxCell>
                <mxCell id="wUre7W1S-Emftdmu5qRH-0" value="+ license_number: string" style="text;strokeColor=none;fillColor=none;align=left;verticalAlign=top;spacingLeft=4;spacingRight=4;overflow=hidden;rotatable=0;points=[[0,0.5],[1,0.5]];portConstraint=eastwest;" vertex="1" parent="CnfUTqY_7m5ZCIH7HR68-0">
                    <mxGeometry y="78" width="160" height="26" as="geometry"/>
                </mxCell>
                <mxCell id="GfWktE7tU3DE8HMaSpcE-0" value="Set of Products" style="swimlane;fontStyle=1;align=center;verticalAlign=top;childLayout=stackLayout;horizontal=1;startSize=26;horizontalStack=0;resizeParent=1;resizeParentMax=0;resizeLast=0;collapsible=1;marginBottom=0;fillColor=#dae8fc;strokeColor=#6c8ebf;" vertex="1" parent="BrkPRGftGvAoWFTweqpY-1">
                    <mxGeometry x="40" y="200" width="190" height="104" as="geometry"/>
                </mxCell>
                <mxCell id="GfWktE7tU3DE8HMaSpcE-1" value="+ catalog_number: string" style="text;strokeColor=none;fillColor=none;align=left;verticalAlign=top;spacingLeft=4;spacingRight=4;overflow=hidden;rotatable=0;points=[[0,0.5],[1,0.5]];portConstraint=eastwest;" vertex="1" parent="GfWktE7tU3DE8HMaSpcE-0">
                    <mxGeometry y="26" width="190" height="26" as="geometry"/>
                </mxCell>
                <mxCell id="GfWktE7tU3DE8HMaSpcE-3" value="+ highest_bid: string" style="text;strokeColor=none;fillColor=none;align=left;verticalAlign=top;spacingLeft=4;spacingRight=4;overflow=hidden;rotatable=0;points=[[0,0.5],[1,0.5]];portConstraint=eastwest;" vertex="1" parent="GfWktE7tU3DE8HMaSpcE-0">
                    <mxGeometry y="52" width="190" height="26" as="geometry"/>
                </mxCell>
                <mxCell id="GfWktE7tU3DE8HMaSpcE-4" value="+ remaining_auction_time: string" style="text;strokeColor=none;fillColor=none;align=left;verticalAlign=top;spacingLeft=4;spacingRight=4;overflow=hidden;rotatable=0;points=[[0,0.5],[1,0.5]];portConstraint=eastwest;" vertex="1" parent="GfWktE7tU3DE8HMaSpcE-0">
                    <mxGeometry y="78" width="190" height="26" as="geometry"/>
                </mxCell>
                <mxCell id="49SYt0M2lIwrB4v6SWUE-0" value="Product" style="swimlane;fontStyle=1;align=center;verticalAlign=top;childLayout=stackLayout;horizontal=1;startSize=26;horizontalStack=0;resizeParent=1;resizeParentMax=0;resizeLast=0;collapsible=1;marginBottom=0;fillColor=#dae8fc;strokeColor=#6c8ebf;" vertex="1" parent="BrkPRGftGvAoWFTweqpY-1">
                    <mxGeometry x="280" y="200" width="160" height="156" as="geometry"/>
                </mxCell>
                <mxCell id="49SYt0M2lIwrB4v6SWUE-1" value="+ name: string" style="text;strokeColor=none;fillColor=none;align=left;verticalAlign=top;spacingLeft=4;spacingRight=4;overflow=hidden;rotatable=0;points=[[0,0.5],[1,0.5]];portConstraint=eastwest;" vertex="1" parent="49SYt0M2lIwrB4v6SWUE-0">
                    <mxGeometry y="26" width="160" height="26" as="geometry"/>
                </mxCell>
                <mxCell id="49SYt0M2lIwrB4v6SWUE-3" value="+ code: string" style="text;strokeColor=none;fillColor=none;align=left;verticalAlign=top;spacingLeft=4;spacingRight=4;overflow=hidden;rotatable=0;points=[[0,0.5],[1,0.5]];portConstraint=eastwest;" vertex="1" parent="49SYt0M2lIwrB4v6SWUE-0">
                    <mxGeometry y="52" width="160" height="26" as="geometry"/>
                </mxCell>
                <mxCell id="49SYt0M2lIwrB4v6SWUE-4" value="+ description: string" style="text;strokeColor=none;fillColor=none;align=left;verticalAlign=top;spacingLeft=4;spacingRight=4;overflow=hidden;rotatable=0;points=[[0,0.5],[1,0.5]];portConstraint=eastwest;" vertex="1" parent="49SYt0M2lIwrB4v6SWUE-0">
                    <mxGeometry y="78" width="160" height="26" as="geometry"/>
                </mxCell>
                <mxCell id="q3FI-XcYMg4kND8r3hrl-0" value="+ img: string" style="text;strokeColor=none;fillColor=none;align=left;verticalAlign=top;spacingLeft=4;spacingRight=4;overflow=hidden;rotatable=0;points=[[0,0.5],[1,0.5]];portConstraint=eastwest;" vertex="1" parent="49SYt0M2lIwrB4v6SWUE-0">
                    <mxGeometry y="104" width="160" height="26" as="geometry"/>
                </mxCell>
                <mxCell id="5LOx0Qz1WXiLOwbhfPBQ-0" value="+ fk_catalog_number: string" style="text;strokeColor=#9673a6;fillColor=#e1d5e7;align=left;verticalAlign=top;spacingLeft=4;spacingRight=4;overflow=hidden;rotatable=0;points=[[0,0.5],[1,0.5]];portConstraint=eastwest;" vertex="1" parent="49SYt0M2lIwrB4v6SWUE-0">
                    <mxGeometry y="130" width="160" height="26" as="geometry"/>
                </mxCell>
                <mxCell id="49SYt0M2lIwrB4v6SWUE-5" value="Customer" style="swimlane;fontStyle=1;align=center;verticalAlign=top;childLayout=stackLayout;horizontal=1;startSize=26;horizontalStack=0;resizeParent=1;resizeParentMax=0;resizeLast=0;collapsible=1;marginBottom=0;fillColor=#dae8fc;strokeColor=#6c8ebf;" vertex="1" parent="BrkPRGftGvAoWFTweqpY-1">
                    <mxGeometry x="480" y="200" width="150" height="208" as="geometry"/>
                </mxCell>
                <mxCell id="49SYt0M2lIwrB4v6SWUE-6" value="+ user_id: string" style="text;strokeColor=none;fillColor=none;align=left;verticalAlign=top;spacingLeft=4;spacingRight=4;overflow=hidden;rotatable=0;points=[[0,0.5],[1,0.5]];portConstraint=eastwest;" vertex="1" parent="49SYt0M2lIwrB4v6SWUE-5">
                    <mxGeometry y="26" width="150" height="26" as="geometry"/>
                </mxCell>
                <mxCell id="gZy-oe9gy3AlUwrTfxjK-1" value="+ name: string" style="text;strokeColor=none;fillColor=none;align=left;verticalAlign=top;spacingLeft=4;spacingRight=4;overflow=hidden;rotatable=0;points=[[0,0.5],[1,0.5]];portConstraint=eastwest;" vertex="1" parent="49SYt0M2lIwrB4v6SWUE-5">
                    <mxGeometry y="52" width="150" height="26" as="geometry"/>
                </mxCell>
                <mxCell id="49SYt0M2lIwrB4v6SWUE-8" value="+ user_name: string" style="text;strokeColor=none;fillColor=none;align=left;verticalAlign=top;spacingLeft=4;spacingRight=4;overflow=hidden;rotatable=0;points=[[0,0.5],[1,0.5]];portConstraint=eastwest;" vertex="1" parent="49SYt0M2lIwrB4v6SWUE-5">
                    <mxGeometry y="78" width="150" height="26" as="geometry"/>
                </mxCell>
                <mxCell id="49SYt0M2lIwrB4v6SWUE-9" value="+ email: string" style="text;strokeColor=none;fillColor=none;align=left;verticalAlign=top;spacingLeft=4;spacingRight=4;overflow=hidden;rotatable=0;points=[[0,0.5],[1,0.5]];portConstraint=eastwest;" vertex="1" parent="49SYt0M2lIwrB4v6SWUE-5">
                    <mxGeometry y="104" width="150" height="26" as="geometry"/>
                </mxCell>
                <mxCell id="azBIbmY296jdvHymgUZ--0" value="+ password: string" style="text;strokeColor=none;fillColor=none;align=left;verticalAlign=top;spacingLeft=4;spacingRight=4;overflow=hidden;rotatable=0;points=[[0,0.5],[1,0.5]];portConstraint=eastwest;" vertex="1" parent="49SYt0M2lIwrB4v6SWUE-5">
                    <mxGeometry y="130" width="150" height="26" as="geometry"/>
                </mxCell>
                <mxCell id="azBIbmY296jdvHymgUZ--1" value="+ bidding_record: string" style="text;strokeColor=none;fillColor=none;align=left;verticalAlign=top;spacingLeft=4;spacingRight=4;overflow=hidden;rotatable=0;points=[[0,0.5],[1,0.5]];portConstraint=eastwest;" vertex="1" parent="49SYt0M2lIwrB4v6SWUE-5">
                    <mxGeometry y="156" width="150" height="26" as="geometry"/>
                </mxCell>
                <mxCell id="N_jF99Jll3KRR49s1oNz-0" value="+ user_address: string" style="text;strokeColor=none;fillColor=none;align=left;verticalAlign=top;spacingLeft=4;spacingRight=4;overflow=hidden;rotatable=0;points=[[0,0.5],[1,0.5]];portConstraint=eastwest;" vertex="1" parent="49SYt0M2lIwrB4v6SWUE-5">
                    <mxGeometry y="182" width="150" height="26" as="geometry"/>
                </mxCell>
                <mxCell id="m3O2kswDVILCXzunYrGH-0" value="Payment Method" style="swimlane;fontStyle=1;align=center;verticalAlign=top;childLayout=stackLayout;horizontal=1;startSize=26;horizontalStack=0;resizeParent=1;resizeParentMax=0;resizeLast=0;collapsible=1;marginBottom=0;fillColor=#dae8fc;strokeColor=#6c8ebf;" vertex="1" parent="BrkPRGftGvAoWFTweqpY-1">
                    <mxGeometry x="40" y="482" width="160" height="78" as="geometry"/>
                </mxCell>
                <mxCell id="m3O2kswDVILCXzunYrGH-1" value="+ fk_user_id: string" style="text;strokeColor=#9673a6;fillColor=#e1d5e7;align=left;verticalAlign=top;spacingLeft=4;spacingRight=4;overflow=hidden;rotatable=0;points=[[0,0.5],[1,0.5]];portConstraint=eastwest;" vertex="1" parent="m3O2kswDVILCXzunYrGH-0">
                    <mxGeometry y="26" width="160" height="26" as="geometry"/>
                </mxCell>
                <mxCell id="m3O2kswDVILCXzunYrGH-3" value="+ payment_type: string" style="text;strokeColor=none;fillColor=none;align=left;verticalAlign=top;spacingLeft=4;spacingRight=4;overflow=hidden;rotatable=0;points=[[0,0.5],[1,0.5]];portConstraint=eastwest;" vertex="1" parent="m3O2kswDVILCXzunYrGH-0">
                    <mxGeometry y="52" width="160" height="26" as="geometry"/>
                </mxCell>
                <mxCell id="m3O2kswDVILCXzunYrGH-5" value="Delivery" style="swimlane;fontStyle=1;align=center;verticalAlign=top;childLayout=stackLayout;horizontal=1;startSize=26;horizontalStack=0;resizeParent=1;resizeParentMax=0;resizeLast=0;collapsible=1;marginBottom=0;fillColor=#dae8fc;strokeColor=#6c8ebf;" vertex="1" parent="BrkPRGftGvAoWFTweqpY-1">
                    <mxGeometry x="750" y="460" width="160" height="130" as="geometry"/>
                </mxCell>
                <mxCell id="m3O2kswDVILCXzunYrGH-6" value="+ delivery_type: string" style="text;strokeColor=none;fillColor=none;align=left;verticalAlign=top;spacingLeft=4;spacingRight=4;overflow=hidden;rotatable=0;points=[[0,0.5],[1,0.5]];portConstraint=eastwest;" vertex="1" parent="m3O2kswDVILCXzunYrGH-5">
                    <mxGeometry y="26" width="160" height="26" as="geometry"/>
                </mxCell>
                <mxCell id="m3O2kswDVILCXzunYrGH-8" value="+ fk_user_address: string" style="text;strokeColor=#9673a6;fillColor=#e1d5e7;align=left;verticalAlign=top;spacingLeft=4;spacingRight=4;overflow=hidden;rotatable=0;points=[[0,0.5],[1,0.5]];portConstraint=eastwest;" vertex="1" parent="m3O2kswDVILCXzunYrGH-5">
                    <mxGeometry y="52" width="160" height="26" as="geometry"/>
                </mxCell>
                <mxCell id="5pf37Y2xgAOB4dki92wI-0" value="+ fk_bid_id: string" style="text;strokeColor=#9673a6;fillColor=#e1d5e7;align=left;verticalAlign=top;spacingLeft=4;spacingRight=4;overflow=hidden;rotatable=0;points=[[0,0.5],[1,0.5]];portConstraint=eastwest;" vertex="1" parent="m3O2kswDVILCXzunYrGH-5">
                    <mxGeometry y="78" width="160" height="26" as="geometry"/>
                </mxCell>
                <mxCell id="5pf37Y2xgAOB4dki92wI-1" value="+ fk_user_id: string" style="text;strokeColor=#9673a6;fillColor=#e1d5e7;align=left;verticalAlign=top;spacingLeft=4;spacingRight=4;overflow=hidden;rotatable=0;points=[[0,0.5],[1,0.5]];portConstraint=eastwest;" vertex="1" parent="m3O2kswDVILCXzunYrGH-5">
                    <mxGeometry y="104" width="160" height="26" as="geometry"/>
                </mxCell>
                <mxCell id="-4T_BWa477WqIAQ7HcXQ-0" value="Transaction" style="swimlane;fontStyle=1;align=center;verticalAlign=top;childLayout=stackLayout;horizontal=1;startSize=26;horizontalStack=0;resizeParent=1;resizeParentMax=0;resizeLast=0;collapsible=1;marginBottom=0;fillColor=#dae8fc;strokeColor=#6c8ebf;" vertex="1" parent="BrkPRGftGvAoWFTweqpY-1">
                    <mxGeometry x="290" y="481" width="160" height="130" as="geometry"/>
                </mxCell>
                <mxCell id="-4T_BWa477WqIAQ7HcXQ-1" value="+ fk_bid_id: string" style="text;strokeColor=#9673a6;fillColor=#e1d5e7;align=left;verticalAlign=top;spacingLeft=4;spacingRight=4;overflow=hidden;rotatable=0;points=[[0,0.5],[1,0.5]];portConstraint=eastwest;" vertex="1" parent="-4T_BWa477WqIAQ7HcXQ-0">
                    <mxGeometry y="26" width="160" height="26" as="geometry"/>
                </mxCell>
                <mxCell id="FJj8vfBR-zcbhlvdsoiQ-0" value="+ transaction_id: string" style="text;align=left;verticalAlign=top;spacingLeft=4;spacingRight=4;overflow=hidden;rotatable=0;points=[[0,0.5],[1,0.5]];portConstraint=eastwest;" vertex="1" parent="-4T_BWa477WqIAQ7HcXQ-0">
                    <mxGeometry y="52" width="160" height="26" as="geometry"/>
                </mxCell>
                <mxCell id="-4T_BWa477WqIAQ7HcXQ-3" value="+ fk_user_id: string" style="text;strokeColor=#9673a6;fillColor=#e1d5e7;align=left;verticalAlign=top;spacingLeft=4;spacingRight=4;overflow=hidden;rotatable=0;points=[[0,0.5],[1,0.5]];portConstraint=eastwest;" vertex="1" parent="-4T_BWa477WqIAQ7HcXQ-0">
                    <mxGeometry y="78" width="160" height="26" as="geometry"/>
                </mxCell>
                <mxCell id="-4T_BWa477WqIAQ7HcXQ-4" value="+ fk_payment_type: string" style="text;strokeColor=#9673a6;fillColor=#e1d5e7;align=left;verticalAlign=top;spacingLeft=4;spacingRight=4;overflow=hidden;rotatable=0;points=[[0,0.5],[1,0.5]];portConstraint=eastwest;" vertex="1" parent="-4T_BWa477WqIAQ7HcXQ-0">
                    <mxGeometry y="104" width="160" height="26" as="geometry"/>
                </mxCell>
                <mxCell id="AdC3wcYDS_VYZ-6y0EsE-0" value="bids" style="swimlane;fontStyle=1;align=center;verticalAlign=top;childLayout=stackLayout;horizontal=1;startSize=26;horizontalStack=0;resizeParent=1;resizeParentMax=0;resizeLast=0;collapsible=1;marginBottom=0;fillColor=#ffe6cc;strokeColor=#d79b00;" vertex="1" parent="BrkPRGftGvAoWFTweqpY-1">
                    <mxGeometry x="810" y="200" width="160" height="208" as="geometry"/>
                </mxCell>
                <mxCell id="AdC3wcYDS_VYZ-6y0EsE-1" value="+ fk_user_id: string" style="text;strokeColor=#9673a6;fillColor=#e1d5e7;align=left;verticalAlign=top;spacingLeft=4;spacingRight=4;overflow=hidden;rotatable=0;points=[[0,0.5],[1,0.5]];portConstraint=eastwest;" vertex="1" parent="AdC3wcYDS_VYZ-6y0EsE-0">
                    <mxGeometry y="26" width="160" height="26" as="geometry"/>
                </mxCell>
                <mxCell id="qnsR9ObDKO3XygONU4FD-1" value="+ fk_catalog_number: string" style="text;strokeColor=#9673a6;fillColor=#e1d5e7;align=left;verticalAlign=top;spacingLeft=4;spacingRight=4;overflow=hidden;rotatable=0;points=[[0,0.5],[1,0.5]];portConstraint=eastwest;" vertex="1" parent="AdC3wcYDS_VYZ-6y0EsE-0">
                    <mxGeometry y="52" width="160" height="26" as="geometry"/>
                </mxCell>
                <mxCell id="Nne9e5Plw4rAFYl8HQlO-0" value="+ fk_user_address: string" style="text;align=left;verticalAlign=top;spacingLeft=4;spacingRight=4;overflow=hidden;rotatable=0;points=[[0,0.5],[1,0.5]];portConstraint=eastwest;fillColor=#e1d5e7;strokeColor=#9673a6;" vertex="1" parent="AdC3wcYDS_VYZ-6y0EsE-0">
                    <mxGeometry y="78" width="160" height="26" as="geometry"/>
                </mxCell>
                <mxCell id="gZy-oe9gy3AlUwrTfxjK-2" value="+ bid_id: string" style="text;strokeColor=none;fillColor=none;align=left;verticalAlign=top;spacingLeft=4;spacingRight=4;overflow=hidden;rotatable=0;points=[[0,0.5],[1,0.5]];portConstraint=eastwest;" vertex="1" parent="AdC3wcYDS_VYZ-6y0EsE-0">
                    <mxGeometry y="104" width="160" height="26" as="geometry"/>
                </mxCell>
                <mxCell id="AdC3wcYDS_VYZ-6y0EsE-3" value="+ amount: string" style="text;strokeColor=none;fillColor=none;align=left;verticalAlign=top;spacingLeft=4;spacingRight=4;overflow=hidden;rotatable=0;points=[[0,0.5],[1,0.5]];portConstraint=eastwest;" vertex="1" parent="AdC3wcYDS_VYZ-6y0EsE-0">
                    <mxGeometry y="130" width="160" height="26" as="geometry"/>
                </mxCell>
                <mxCell id="AdC3wcYDS_VYZ-6y0EsE-4" value="+ bid_date: date" style="text;strokeColor=none;fillColor=none;align=left;verticalAlign=top;spacingLeft=4;spacingRight=4;overflow=hidden;rotatable=0;points=[[0,0.5],[1,0.5]];portConstraint=eastwest;" vertex="1" parent="AdC3wcYDS_VYZ-6y0EsE-0">
                    <mxGeometry y="156" width="160" height="26" as="geometry"/>
                </mxCell>
                <mxCell id="6zJyDn1yCaq_Xdd1mUHI-0" value="+ bid_hour: date" style="text;strokeColor=none;fillColor=none;align=left;verticalAlign=top;spacingLeft=4;spacingRight=4;overflow=hidden;rotatable=0;points=[[0,0.5],[1,0.5]];portConstraint=eastwest;" vertex="1" parent="AdC3wcYDS_VYZ-6y0EsE-0">
                    <mxGeometry y="182" width="160" height="26" as="geometry"/>
                </mxCell>
                <mxCell id="5LOx0Qz1WXiLOwbhfPBQ-1" style="edgeStyle=orthogonalEdgeStyle;html=1;entryX=0;entryY=0.5;entryDx=0;entryDy=0;startArrow=none;startFill=0;endArrow=none;endFill=0;strokeColor=default;elbow=vertical;" edge="1" parent="BrkPRGftGvAoWFTweqpY-1" source="GfWktE7tU3DE8HMaSpcE-1" target="5LOx0Qz1WXiLOwbhfPBQ-0">
                    <mxGeometry relative="1" as="geometry"/>
                </mxCell>
                <mxCell id="gZy-oe9gy3AlUwrTfxjK-3" style="edgeStyle=orthogonalEdgeStyle;html=1;entryX=0;entryY=0.5;entryDx=0;entryDy=0;startArrow=none;startFill=0;endArrow=none;endFill=0;strokeColor=default;elbow=vertical;" edge="1" parent="BrkPRGftGvAoWFTweqpY-1" source="49SYt0M2lIwrB4v6SWUE-6" target="AdC3wcYDS_VYZ-6y0EsE-1">
                    <mxGeometry relative="1" as="geometry"/>
                </mxCell>
                <mxCell id="qnsR9ObDKO3XygONU4FD-0" style="edgeStyle=orthogonalEdgeStyle;html=1;entryX=0;entryY=0.5;entryDx=0;entryDy=0;startArrow=none;startFill=0;endArrow=none;endFill=0;strokeColor=default;elbow=vertical;exitX=0;exitY=0.5;exitDx=0;exitDy=0;" edge="1" parent="BrkPRGftGvAoWFTweqpY-1" source="49SYt0M2lIwrB4v6SWUE-6" target="m3O2kswDVILCXzunYrGH-1">
                    <mxGeometry relative="1" as="geometry">
                        <mxPoint x="470" y="239" as="sourcePoint"/>
                        <Array as="points">
                            <mxPoint x="470" y="239"/>
                            <mxPoint x="470" y="420"/>
                            <mxPoint x="30" y="420"/>
                            <mxPoint x="30" y="521"/>
                        </Array>
                    </mxGeometry>
                </mxCell>
                <mxCell id="qnsR9ObDKO3XygONU4FD-2" style="edgeStyle=orthogonalEdgeStyle;html=1;entryX=0;entryY=0.5;entryDx=0;entryDy=0;startArrow=none;startFill=0;endArrow=none;endFill=0;strokeColor=default;elbow=vertical;exitX=0;exitY=0.5;exitDx=0;exitDy=0;" edge="1" parent="BrkPRGftGvAoWFTweqpY-1" source="qnsR9ObDKO3XygONU4FD-1" target="GfWktE7tU3DE8HMaSpcE-1">
                    <mxGeometry relative="1" as="geometry">
                        <Array as="points">
                            <mxPoint x="650" y="265"/>
                            <mxPoint x="650" y="170"/>
                            <mxPoint x="30" y="170"/>
                            <mxPoint x="30" y="239"/>
                        </Array>
                    </mxGeometry>
                </mxCell>
                <mxCell id="Nne9e5Plw4rAFYl8HQlO-1" style="edgeStyle=orthogonalEdgeStyle;html=1;entryX=0;entryY=0.5;entryDx=0;entryDy=0;startArrow=none;startFill=0;endArrow=none;endFill=0;strokeColor=default;elbow=vertical;exitX=1;exitY=0.5;exitDx=0;exitDy=0;" edge="1" parent="BrkPRGftGvAoWFTweqpY-1" source="N_jF99Jll3KRR49s1oNz-0" target="m3O2kswDVILCXzunYrGH-8">
                    <mxGeometry relative="1" as="geometry">
                        <Array as="points">
                            <mxPoint x="640" y="395"/>
                            <mxPoint x="640" y="525"/>
                        </Array>
                    </mxGeometry>
                </mxCell>
                <mxCell id="BgClaYyAYrLp8_hT_Ja5-1" style="edgeStyle=orthogonalEdgeStyle;html=1;entryX=0.006;entryY=0.231;entryDx=0;entryDy=0;entryPerimeter=0;startArrow=none;startFill=0;endArrow=none;endFill=0;strokeColor=default;elbow=vertical;" edge="1" parent="BrkPRGftGvAoWFTweqpY-1" source="5pf37Y2xgAOB4dki92wI-0" target="gZy-oe9gy3AlUwrTfxjK-2">
                    <mxGeometry relative="1" as="geometry"/>
                </mxCell>
                <mxCell id="jYjSlkyqfGpeu9L4SQ_L-0" style="edgeStyle=orthogonalEdgeStyle;html=1;entryX=0;entryY=0.5;entryDx=0;entryDy=0;startArrow=none;startFill=0;endArrow=none;endFill=0;strokeColor=default;elbow=vertical;" edge="1" parent="BrkPRGftGvAoWFTweqpY-1" source="49SYt0M2lIwrB4v6SWUE-6" target="5pf37Y2xgAOB4dki92wI-1">
                    <mxGeometry relative="1" as="geometry">
                        <Array as="points">
                            <mxPoint x="460" y="239"/>
                            <mxPoint x="460" y="450"/>
                            <mxPoint x="530" y="450"/>
                            <mxPoint x="530" y="577"/>
                        </Array>
                    </mxGeometry>
                </mxCell>
                <mxCell id="N_jF99Jll3KRR49s1oNz-1" style="edgeStyle=orthogonalEdgeStyle;html=1;startArrow=none;startFill=0;endArrow=none;endFill=0;strokeColor=default;elbow=vertical;entryX=1;entryY=0.5;entryDx=0;entryDy=0;" edge="1" parent="BrkPRGftGvAoWFTweqpY-1" source="qnsR9ObDKO3XygONU4FD-1" target="N_jF99Jll3KRR49s1oNz-0">
                    <mxGeometry relative="1" as="geometry">
                        <mxPoint x="640" y="390" as="targetPoint"/>
                    </mxGeometry>
                </mxCell>
                <mxCell id="dIuAxkrDfmIkyHQICSva-0" style="edgeStyle=orthogonalEdgeStyle;html=1;entryX=1;entryY=0.5;entryDx=0;entryDy=0;startArrow=none;startFill=0;endArrow=none;endFill=0;strokeColor=default;elbow=vertical;" edge="1" parent="BrkPRGftGvAoWFTweqpY-1" source="gZy-oe9gy3AlUwrTfxjK-2" target="-4T_BWa477WqIAQ7HcXQ-1">
                    <mxGeometry relative="1" as="geometry">
                        <Array as="points">
                            <mxPoint x="680" y="317"/>
                            <mxPoint x="680" y="520"/>
                        </Array>
                    </mxGeometry>
                </mxCell>
                <mxCell id="dIuAxkrDfmIkyHQICSva-1" style="edgeStyle=orthogonalEdgeStyle;html=1;startArrow=none;startFill=0;endArrow=none;endFill=0;strokeColor=default;elbow=vertical;" edge="1" parent="BrkPRGftGvAoWFTweqpY-1" source="49SYt0M2lIwrB4v6SWUE-6" target="-4T_BWa477WqIAQ7HcXQ-3">
                    <mxGeometry relative="1" as="geometry"/>
                </mxCell>
                <mxCell id="dIuAxkrDfmIkyHQICSva-2" style="edgeStyle=orthogonalEdgeStyle;html=1;entryX=0;entryY=0.5;entryDx=0;entryDy=0;startArrow=none;startFill=0;endArrow=none;endFill=0;strokeColor=default;elbow=vertical;" edge="1" parent="BrkPRGftGvAoWFTweqpY-1" source="m3O2kswDVILCXzunYrGH-3" target="-4T_BWa477WqIAQ7HcXQ-4">
                    <mxGeometry relative="1" as="geometry"/>
                </mxCell>
            </root>
        </mxGraphModel>
    </diagram>
    <diagram id="qkRbvgkk5tfpMBx8zUW5" name="Step4- Refine">
<<<<<<< HEAD
        <mxGraphModel dx="1444" dy="790" grid="1" gridSize="10" guides="1" tooltips="1" connect="1" arrows="1" fold="1" page="1" pageScale="1" pageWidth="827" pageHeight="1169" math="0" shadow="0">
=======
        <mxGraphModel dx="963" dy="1889" grid="1" gridSize="10" guides="1" tooltips="1" connect="1" arrows="1" fold="1" page="1" pageScale="1" pageWidth="827" pageHeight="1169" math="0" shadow="0">
>>>>>>> 031339579866e16f592af8d129042d718f9071ac
            <root>
                <mxCell id="e0_7lDDhxA25oNrazKJY-0"/>
                <mxCell id="e0_7lDDhxA25oNrazKJY-1" parent="e0_7lDDhxA25oNrazKJY-0"/>
                <mxCell id="oWcIiMcYQlrmQU2mviIV-0" value="Auction House" style="swimlane;fontStyle=1;align=center;verticalAlign=top;childLayout=stackLayout;horizontal=1;startSize=26;horizontalStack=0;resizeParent=1;resizeParentMax=0;resizeLast=0;collapsible=1;marginBottom=0;fillColor=#d5e8d4;strokeColor=#82b366;" vertex="1" parent="e0_7lDDhxA25oNrazKJY-1">
                    <mxGeometry x="40" y="40" width="160" height="104" as="geometry"/>
                </mxCell>
                <mxCell id="oWcIiMcYQlrmQU2mviIV-1" value="+ name: string" style="text;strokeColor=none;fillColor=none;align=left;verticalAlign=top;spacingLeft=4;spacingRight=4;overflow=hidden;rotatable=0;points=[[0,0.5],[1,0.5]];portConstraint=eastwest;" vertex="1" parent="oWcIiMcYQlrmQU2mviIV-0">
                    <mxGeometry y="26" width="160" height="26" as="geometry"/>
                </mxCell>
                <mxCell id="oWcIiMcYQlrmQU2mviIV-2" value="+ legal_adress: string" style="text;strokeColor=none;fillColor=none;align=left;verticalAlign=top;spacingLeft=4;spacingRight=4;overflow=hidden;rotatable=0;points=[[0,0.5],[1,0.5]];portConstraint=eastwest;" vertex="1" parent="oWcIiMcYQlrmQU2mviIV-0">
                    <mxGeometry y="52" width="160" height="26" as="geometry"/>
                </mxCell>
                <mxCell id="oWcIiMcYQlrmQU2mviIV-3" value="+ license_number: string" style="text;strokeColor=none;fillColor=none;align=left;verticalAlign=top;spacingLeft=4;spacingRight=4;overflow=hidden;rotatable=0;points=[[0,0.5],[1,0.5]];portConstraint=eastwest;" vertex="1" parent="oWcIiMcYQlrmQU2mviIV-0">
                    <mxGeometry y="78" width="160" height="26" as="geometry"/>
                </mxCell>
                <mxCell id="oWcIiMcYQlrmQU2mviIV-4" value="Set of Products" style="swimlane;fontStyle=1;align=center;verticalAlign=top;childLayout=stackLayout;horizontal=1;startSize=26;horizontalStack=0;resizeParent=1;resizeParentMax=0;resizeLast=0;collapsible=1;marginBottom=0;fillColor=#dae8fc;strokeColor=#6c8ebf;" vertex="1" parent="e0_7lDDhxA25oNrazKJY-1">
                    <mxGeometry x="40" y="200" width="190" height="104" as="geometry"/>
                </mxCell>
                <mxCell id="oWcIiMcYQlrmQU2mviIV-5" value="+ catalog_number: string" style="text;strokeColor=none;fillColor=none;align=left;verticalAlign=top;spacingLeft=4;spacingRight=4;overflow=hidden;rotatable=0;points=[[0,0.5],[1,0.5]];portConstraint=eastwest;" vertex="1" parent="oWcIiMcYQlrmQU2mviIV-4">
                    <mxGeometry y="26" width="190" height="26" as="geometry"/>
                </mxCell>
                <mxCell id="oWcIiMcYQlrmQU2mviIV-6" value="+ highest_bid: string" style="text;strokeColor=none;fillColor=none;align=left;verticalAlign=top;spacingLeft=4;spacingRight=4;overflow=hidden;rotatable=0;points=[[0,0.5],[1,0.5]];portConstraint=eastwest;" vertex="1" parent="oWcIiMcYQlrmQU2mviIV-4">
                    <mxGeometry y="52" width="190" height="26" as="geometry"/>
                </mxCell>
                <mxCell id="oWcIiMcYQlrmQU2mviIV-7" value="+ remaining_auction_time: string" style="text;strokeColor=none;fillColor=none;align=left;verticalAlign=top;spacingLeft=4;spacingRight=4;overflow=hidden;rotatable=0;points=[[0,0.5],[1,0.5]];portConstraint=eastwest;" vertex="1" parent="oWcIiMcYQlrmQU2mviIV-4">
                    <mxGeometry y="78" width="190" height="26" as="geometry"/>
                </mxCell>
                <mxCell id="oWcIiMcYQlrmQU2mviIV-8" value="Product" style="swimlane;fontStyle=1;align=center;verticalAlign=top;childLayout=stackLayout;horizontal=1;startSize=26;horizontalStack=0;resizeParent=1;resizeParentMax=0;resizeLast=0;collapsible=1;marginBottom=0;fillColor=#dae8fc;strokeColor=#6c8ebf;" vertex="1" parent="e0_7lDDhxA25oNrazKJY-1">
                    <mxGeometry x="280" y="200" width="160" height="156" as="geometry"/>
                </mxCell>
                <mxCell id="oWcIiMcYQlrmQU2mviIV-9" value="+ name: string" style="text;strokeColor=none;fillColor=none;align=left;verticalAlign=top;spacingLeft=4;spacingRight=4;overflow=hidden;rotatable=0;points=[[0,0.5],[1,0.5]];portConstraint=eastwest;" vertex="1" parent="oWcIiMcYQlrmQU2mviIV-8">
                    <mxGeometry y="26" width="160" height="26" as="geometry"/>
                </mxCell>
                <mxCell id="oWcIiMcYQlrmQU2mviIV-10" value="+ code: string" style="text;strokeColor=none;fillColor=none;align=left;verticalAlign=top;spacingLeft=4;spacingRight=4;overflow=hidden;rotatable=0;points=[[0,0.5],[1,0.5]];portConstraint=eastwest;" vertex="1" parent="oWcIiMcYQlrmQU2mviIV-8">
                    <mxGeometry y="52" width="160" height="26" as="geometry"/>
                </mxCell>
                <mxCell id="oWcIiMcYQlrmQU2mviIV-11" value="+ description: string" style="text;strokeColor=none;fillColor=none;align=left;verticalAlign=top;spacingLeft=4;spacingRight=4;overflow=hidden;rotatable=0;points=[[0,0.5],[1,0.5]];portConstraint=eastwest;" vertex="1" parent="oWcIiMcYQlrmQU2mviIV-8">
                    <mxGeometry y="78" width="160" height="26" as="geometry"/>
                </mxCell>
                <mxCell id="oWcIiMcYQlrmQU2mviIV-12" value="+ img: string" style="text;strokeColor=none;fillColor=none;align=left;verticalAlign=top;spacingLeft=4;spacingRight=4;overflow=hidden;rotatable=0;points=[[0,0.5],[1,0.5]];portConstraint=eastwest;" vertex="1" parent="oWcIiMcYQlrmQU2mviIV-8">
                    <mxGeometry y="104" width="160" height="26" as="geometry"/>
                </mxCell>
                <mxCell id="oWcIiMcYQlrmQU2mviIV-13" value="+ fk_catalog_number: string" style="text;strokeColor=#9673a6;fillColor=#e1d5e7;align=left;verticalAlign=top;spacingLeft=4;spacingRight=4;overflow=hidden;rotatable=0;points=[[0,0.5],[1,0.5]];portConstraint=eastwest;" vertex="1" parent="oWcIiMcYQlrmQU2mviIV-8">
                    <mxGeometry y="130" width="160" height="26" as="geometry"/>
                </mxCell>
                <mxCell id="oWcIiMcYQlrmQU2mviIV-14" value="Customer" style="swimlane;fontStyle=1;align=center;verticalAlign=top;childLayout=stackLayout;horizontal=1;startSize=26;horizontalStack=0;resizeParent=1;resizeParentMax=0;resizeLast=0;collapsible=1;marginBottom=0;fillColor=#dae8fc;strokeColor=#6c8ebf;" vertex="1" parent="e0_7lDDhxA25oNrazKJY-1">
                    <mxGeometry x="480" y="200" width="150" height="208" as="geometry"/>
                </mxCell>
                <mxCell id="oWcIiMcYQlrmQU2mviIV-15" value="+ user_id: string" style="text;strokeColor=none;fillColor=none;align=left;verticalAlign=top;spacingLeft=4;spacingRight=4;overflow=hidden;rotatable=0;points=[[0,0.5],[1,0.5]];portConstraint=eastwest;" vertex="1" parent="oWcIiMcYQlrmQU2mviIV-14">
                    <mxGeometry y="26" width="150" height="26" as="geometry"/>
                </mxCell>
                <mxCell id="oWcIiMcYQlrmQU2mviIV-16" value="+ name: string" style="text;strokeColor=none;fillColor=none;align=left;verticalAlign=top;spacingLeft=4;spacingRight=4;overflow=hidden;rotatable=0;points=[[0,0.5],[1,0.5]];portConstraint=eastwest;" vertex="1" parent="oWcIiMcYQlrmQU2mviIV-14">
                    <mxGeometry y="52" width="150" height="26" as="geometry"/>
                </mxCell>
                <mxCell id="oWcIiMcYQlrmQU2mviIV-17" value="+ user_name: string" style="text;strokeColor=none;fillColor=none;align=left;verticalAlign=top;spacingLeft=4;spacingRight=4;overflow=hidden;rotatable=0;points=[[0,0.5],[1,0.5]];portConstraint=eastwest;" vertex="1" parent="oWcIiMcYQlrmQU2mviIV-14">
                    <mxGeometry y="78" width="150" height="26" as="geometry"/>
                </mxCell>
                <mxCell id="oWcIiMcYQlrmQU2mviIV-18" value="+ email: string" style="text;strokeColor=none;fillColor=none;align=left;verticalAlign=top;spacingLeft=4;spacingRight=4;overflow=hidden;rotatable=0;points=[[0,0.5],[1,0.5]];portConstraint=eastwest;" vertex="1" parent="oWcIiMcYQlrmQU2mviIV-14">
                    <mxGeometry y="104" width="150" height="26" as="geometry"/>
                </mxCell>
                <mxCell id="oWcIiMcYQlrmQU2mviIV-19" value="+ password: string" style="text;strokeColor=none;fillColor=none;align=left;verticalAlign=top;spacingLeft=4;spacingRight=4;overflow=hidden;rotatable=0;points=[[0,0.5],[1,0.5]];portConstraint=eastwest;" vertex="1" parent="oWcIiMcYQlrmQU2mviIV-14">
                    <mxGeometry y="130" width="150" height="26" as="geometry"/>
                </mxCell>
                <mxCell id="oWcIiMcYQlrmQU2mviIV-20" value="+ bidding_record: string" style="text;strokeColor=none;fillColor=none;align=left;verticalAlign=top;spacingLeft=4;spacingRight=4;overflow=hidden;rotatable=0;points=[[0,0.5],[1,0.5]];portConstraint=eastwest;" vertex="1" parent="oWcIiMcYQlrmQU2mviIV-14">
                    <mxGeometry y="156" width="150" height="26" as="geometry"/>
                </mxCell>
                <mxCell id="oWcIiMcYQlrmQU2mviIV-21" value="+ fk_user_address: string" style="text;strokeColor=#9673a6;fillColor=#e1d5e7;align=left;verticalAlign=top;spacingLeft=4;spacingRight=4;overflow=hidden;rotatable=0;points=[[0,0.5],[1,0.5]];portConstraint=eastwest;" vertex="1" parent="oWcIiMcYQlrmQU2mviIV-14">
                    <mxGeometry y="182" width="150" height="26" as="geometry"/>
                </mxCell>
                <mxCell id="oWcIiMcYQlrmQU2mviIV-22" value="Payment Method" style="swimlane;fontStyle=1;align=center;verticalAlign=top;childLayout=stackLayout;horizontal=1;startSize=26;horizontalStack=0;resizeParent=1;resizeParentMax=0;resizeLast=0;collapsible=1;marginBottom=0;fillColor=#dae8fc;strokeColor=#6c8ebf;" vertex="1" parent="e0_7lDDhxA25oNrazKJY-1">
                    <mxGeometry x="40" y="482" width="160" height="78" as="geometry"/>
                </mxCell>
                <mxCell id="oWcIiMcYQlrmQU2mviIV-23" value="+ fk_user_id: string" style="text;strokeColor=#9673a6;fillColor=#e1d5e7;align=left;verticalAlign=top;spacingLeft=4;spacingRight=4;overflow=hidden;rotatable=0;points=[[0,0.5],[1,0.5]];portConstraint=eastwest;" vertex="1" parent="oWcIiMcYQlrmQU2mviIV-22">
                    <mxGeometry y="26" width="160" height="26" as="geometry"/>
                </mxCell>
                <mxCell id="oWcIiMcYQlrmQU2mviIV-24" value="+ payment_type: string" style="text;strokeColor=none;fillColor=none;align=left;verticalAlign=top;spacingLeft=4;spacingRight=4;overflow=hidden;rotatable=0;points=[[0,0.5],[1,0.5]];portConstraint=eastwest;" vertex="1" parent="oWcIiMcYQlrmQU2mviIV-22">
                    <mxGeometry y="52" width="160" height="26" as="geometry"/>
                </mxCell>
                <mxCell id="oWcIiMcYQlrmQU2mviIV-25" value="Delivery" style="swimlane;fontStyle=1;align=center;verticalAlign=top;childLayout=stackLayout;horizontal=1;startSize=26;horizontalStack=0;resizeParent=1;resizeParentMax=0;resizeLast=0;collapsible=1;marginBottom=0;fillColor=#dae8fc;strokeColor=#6c8ebf;" vertex="1" parent="e0_7lDDhxA25oNrazKJY-1">
                    <mxGeometry x="710" y="490" width="160" height="130" as="geometry"/>
                </mxCell>
                <mxCell id="oWcIiMcYQlrmQU2mviIV-26" value="+ delivery_type: string" style="text;strokeColor=none;fillColor=none;align=left;verticalAlign=top;spacingLeft=4;spacingRight=4;overflow=hidden;rotatable=0;points=[[0,0.5],[1,0.5]];portConstraint=eastwest;" vertex="1" parent="oWcIiMcYQlrmQU2mviIV-25">
                    <mxGeometry y="26" width="160" height="26" as="geometry"/>
                </mxCell>
                <mxCell id="oWcIiMcYQlrmQU2mviIV-27" value="+ fk_user_address: string" style="text;strokeColor=#9673a6;fillColor=#e1d5e7;align=left;verticalAlign=top;spacingLeft=4;spacingRight=4;overflow=hidden;rotatable=0;points=[[0,0.5],[1,0.5]];portConstraint=eastwest;" vertex="1" parent="oWcIiMcYQlrmQU2mviIV-25">
                    <mxGeometry y="52" width="160" height="26" as="geometry"/>
                </mxCell>
                <mxCell id="oWcIiMcYQlrmQU2mviIV-28" value="+ fk_bid_id: string" style="text;strokeColor=#9673a6;fillColor=#e1d5e7;align=left;verticalAlign=top;spacingLeft=4;spacingRight=4;overflow=hidden;rotatable=0;points=[[0,0.5],[1,0.5]];portConstraint=eastwest;" vertex="1" parent="oWcIiMcYQlrmQU2mviIV-25">
                    <mxGeometry y="78" width="160" height="26" as="geometry"/>
                </mxCell>
                <mxCell id="oWcIiMcYQlrmQU2mviIV-29" value="+ fk_user_id: string" style="text;strokeColor=#9673a6;fillColor=#e1d5e7;align=left;verticalAlign=top;spacingLeft=4;spacingRight=4;overflow=hidden;rotatable=0;points=[[0,0.5],[1,0.5]];portConstraint=eastwest;" vertex="1" parent="oWcIiMcYQlrmQU2mviIV-25">
                    <mxGeometry y="104" width="160" height="26" as="geometry"/>
                </mxCell>
                <mxCell id="oWcIiMcYQlrmQU2mviIV-30" value="Transaction" style="swimlane;fontStyle=1;align=center;verticalAlign=top;childLayout=stackLayout;horizontal=1;startSize=26;horizontalStack=0;resizeParent=1;resizeParentMax=0;resizeLast=0;collapsible=1;marginBottom=0;fillColor=#dae8fc;strokeColor=#6c8ebf;" vertex="1" parent="e0_7lDDhxA25oNrazKJY-1">
                    <mxGeometry x="290" y="481" width="160" height="130" as="geometry"/>
                </mxCell>
                <mxCell id="oWcIiMcYQlrmQU2mviIV-31" value="+transaction_id: string" style="text;align=left;verticalAlign=top;spacingLeft=4;spacingRight=4;overflow=hidden;rotatable=0;points=[[0,0.5],[1,0.5]];portConstraint=eastwest;" vertex="1" parent="oWcIiMcYQlrmQU2mviIV-30">
                    <mxGeometry y="26" width="160" height="26" as="geometry"/>
                </mxCell>
                <mxCell id="3NYMmHqhmMYXNztYf674-0" value="+ fk_bid_id: string" style="text;strokeColor=#9673a6;fillColor=#e1d5e7;align=left;verticalAlign=top;spacingLeft=4;spacingRight=4;overflow=hidden;rotatable=0;points=[[0,0.5],[1,0.5]];portConstraint=eastwest;" vertex="1" parent="oWcIiMcYQlrmQU2mviIV-30">
                    <mxGeometry y="52" width="160" height="26" as="geometry"/>
                </mxCell>
                <mxCell id="oWcIiMcYQlrmQU2mviIV-32" value="+ fk_user_id: string" style="text;strokeColor=#9673a6;fillColor=#e1d5e7;align=left;verticalAlign=top;spacingLeft=4;spacingRight=4;overflow=hidden;rotatable=0;points=[[0,0.5],[1,0.5]];portConstraint=eastwest;" vertex="1" parent="oWcIiMcYQlrmQU2mviIV-30">
                    <mxGeometry y="78" width="160" height="26" as="geometry"/>
                </mxCell>
                <mxCell id="oWcIiMcYQlrmQU2mviIV-33" value="+ fk_payment_type: string" style="text;strokeColor=#9673a6;fillColor=#e1d5e7;align=left;verticalAlign=top;spacingLeft=4;spacingRight=4;overflow=hidden;rotatable=0;points=[[0,0.5],[1,0.5]];portConstraint=eastwest;" vertex="1" parent="oWcIiMcYQlrmQU2mviIV-30">
                    <mxGeometry y="104" width="160" height="26" as="geometry"/>
                </mxCell>
                <mxCell id="oWcIiMcYQlrmQU2mviIV-34" value="bids" style="swimlane;fontStyle=1;align=center;verticalAlign=top;childLayout=stackLayout;horizontal=1;startSize=26;horizontalStack=0;resizeParent=1;resizeParentMax=0;resizeLast=0;collapsible=1;marginBottom=0;fillColor=#ffe6cc;strokeColor=#d79b00;" vertex="1" parent="e0_7lDDhxA25oNrazKJY-1">
                    <mxGeometry x="790" y="200" width="160" height="208" as="geometry"/>
                </mxCell>
                <mxCell id="oWcIiMcYQlrmQU2mviIV-35" value="+ fk_user_id: string" style="text;strokeColor=#9673a6;fillColor=#e1d5e7;align=left;verticalAlign=top;spacingLeft=4;spacingRight=4;overflow=hidden;rotatable=0;points=[[0,0.5],[1,0.5]];portConstraint=eastwest;" vertex="1" parent="oWcIiMcYQlrmQU2mviIV-34">
                    <mxGeometry y="26" width="160" height="26" as="geometry"/>
                </mxCell>
                <mxCell id="oWcIiMcYQlrmQU2mviIV-36" value="+ fk_catalog_number: string" style="text;strokeColor=#9673a6;fillColor=#e1d5e7;align=left;verticalAlign=top;spacingLeft=4;spacingRight=4;overflow=hidden;rotatable=0;points=[[0,0.5],[1,0.5]];portConstraint=eastwest;" vertex="1" parent="oWcIiMcYQlrmQU2mviIV-34">
                    <mxGeometry y="52" width="160" height="26" as="geometry"/>
                </mxCell>
                <mxCell id="oWcIiMcYQlrmQU2mviIV-37" value="+ fk_user_address: string" style="text;align=left;verticalAlign=top;spacingLeft=4;spacingRight=4;overflow=hidden;rotatable=0;points=[[0,0.5],[1,0.5]];portConstraint=eastwest;fillColor=#e1d5e7;strokeColor=#9673a6;" vertex="1" parent="oWcIiMcYQlrmQU2mviIV-34">
                    <mxGeometry y="78" width="160" height="26" as="geometry"/>
                </mxCell>
                <mxCell id="oWcIiMcYQlrmQU2mviIV-38" value="+ bid_id: string" style="text;strokeColor=none;fillColor=none;align=left;verticalAlign=top;spacingLeft=4;spacingRight=4;overflow=hidden;rotatable=0;points=[[0,0.5],[1,0.5]];portConstraint=eastwest;" vertex="1" parent="oWcIiMcYQlrmQU2mviIV-34">
                    <mxGeometry y="104" width="160" height="26" as="geometry"/>
                </mxCell>
                <mxCell id="oWcIiMcYQlrmQU2mviIV-39" value="+ amount: string" style="text;strokeColor=none;fillColor=none;align=left;verticalAlign=top;spacingLeft=4;spacingRight=4;overflow=hidden;rotatable=0;points=[[0,0.5],[1,0.5]];portConstraint=eastwest;" vertex="1" parent="oWcIiMcYQlrmQU2mviIV-34">
                    <mxGeometry y="130" width="160" height="26" as="geometry"/>
                </mxCell>
                <mxCell id="oWcIiMcYQlrmQU2mviIV-40" value="+ bid_date: date" style="text;strokeColor=none;fillColor=none;align=left;verticalAlign=top;spacingLeft=4;spacingRight=4;overflow=hidden;rotatable=0;points=[[0,0.5],[1,0.5]];portConstraint=eastwest;" vertex="1" parent="oWcIiMcYQlrmQU2mviIV-34">
                    <mxGeometry y="156" width="160" height="26" as="geometry"/>
                </mxCell>
                <mxCell id="oWcIiMcYQlrmQU2mviIV-41" value="+ bid_hour: date" style="text;strokeColor=none;fillColor=none;align=left;verticalAlign=top;spacingLeft=4;spacingRight=4;overflow=hidden;rotatable=0;points=[[0,0.5],[1,0.5]];portConstraint=eastwest;" vertex="1" parent="oWcIiMcYQlrmQU2mviIV-34">
                    <mxGeometry y="182" width="160" height="26" as="geometry"/>
                </mxCell>
                <mxCell id="oWcIiMcYQlrmQU2mviIV-42" style="edgeStyle=orthogonalEdgeStyle;html=1;entryX=0;entryY=0.5;entryDx=0;entryDy=0;startArrow=none;startFill=0;endArrow=none;endFill=0;strokeColor=default;elbow=vertical;" edge="1" parent="e0_7lDDhxA25oNrazKJY-1" source="oWcIiMcYQlrmQU2mviIV-5" target="oWcIiMcYQlrmQU2mviIV-13">
                    <mxGeometry relative="1" as="geometry"/>
                </mxCell>
                <mxCell id="oWcIiMcYQlrmQU2mviIV-43" style="edgeStyle=orthogonalEdgeStyle;html=1;entryX=0;entryY=0.5;entryDx=0;entryDy=0;startArrow=none;startFill=0;endArrow=none;endFill=0;strokeColor=default;elbow=vertical;" edge="1" parent="e0_7lDDhxA25oNrazKJY-1" source="oWcIiMcYQlrmQU2mviIV-15" target="oWcIiMcYQlrmQU2mviIV-35">
                    <mxGeometry relative="1" as="geometry"/>
                </mxCell>
                <mxCell id="oWcIiMcYQlrmQU2mviIV-44" style="edgeStyle=orthogonalEdgeStyle;html=1;entryX=0;entryY=0.5;entryDx=0;entryDy=0;startArrow=none;startFill=0;endArrow=none;endFill=0;strokeColor=default;elbow=vertical;exitX=0;exitY=0.5;exitDx=0;exitDy=0;" edge="1" parent="e0_7lDDhxA25oNrazKJY-1" source="oWcIiMcYQlrmQU2mviIV-15" target="oWcIiMcYQlrmQU2mviIV-23">
                    <mxGeometry relative="1" as="geometry">
                        <mxPoint x="470" y="239" as="sourcePoint"/>
                        <Array as="points">
                            <mxPoint x="470" y="239"/>
                            <mxPoint x="470" y="420"/>
                            <mxPoint x="30" y="420"/>
                            <mxPoint x="30" y="521"/>
                        </Array>
                    </mxGeometry>
                </mxCell>
                <mxCell id="oWcIiMcYQlrmQU2mviIV-45" style="edgeStyle=orthogonalEdgeStyle;html=1;entryX=0;entryY=0.5;entryDx=0;entryDy=0;startArrow=none;startFill=0;endArrow=none;endFill=0;strokeColor=default;elbow=vertical;exitX=0;exitY=0.5;exitDx=0;exitDy=0;" edge="1" parent="e0_7lDDhxA25oNrazKJY-1" source="oWcIiMcYQlrmQU2mviIV-36" target="oWcIiMcYQlrmQU2mviIV-5">
                    <mxGeometry relative="1" as="geometry">
                        <Array as="points">
                            <mxPoint x="650" y="265"/>
                            <mxPoint x="650" y="170"/>
                            <mxPoint x="30" y="170"/>
                            <mxPoint x="30" y="239"/>
                        </Array>
                    </mxGeometry>
                </mxCell>
                <mxCell id="oWcIiMcYQlrmQU2mviIV-46" style="edgeStyle=orthogonalEdgeStyle;html=1;entryX=0;entryY=0.5;entryDx=0;entryDy=0;startArrow=none;startFill=0;endArrow=none;endFill=0;strokeColor=default;elbow=vertical;" edge="1" parent="e0_7lDDhxA25oNrazKJY-1" target="oWcIiMcYQlrmQU2mviIV-27">
                    <mxGeometry relative="1" as="geometry">
                        <Array as="points">
                            <mxPoint x="710" y="-10"/>
                            <mxPoint x="710" y="395"/>
                            <mxPoint x="700" y="395"/>
                            <mxPoint x="700" y="550"/>
                            <mxPoint x="710" y="550"/>
                        </Array>
                        <mxPoint x="630" y="-10" as="sourcePoint"/>
                    </mxGeometry>
                </mxCell>
                <mxCell id="oWcIiMcYQlrmQU2mviIV-47" style="edgeStyle=orthogonalEdgeStyle;html=1;entryX=0.006;entryY=0.231;entryDx=0;entryDy=0;entryPerimeter=0;startArrow=none;startFill=0;endArrow=none;endFill=0;strokeColor=default;elbow=vertical;" edge="1" parent="e0_7lDDhxA25oNrazKJY-1" source="oWcIiMcYQlrmQU2mviIV-28" target="oWcIiMcYQlrmQU2mviIV-38">
                    <mxGeometry relative="1" as="geometry"/>
                </mxCell>
                <mxCell id="oWcIiMcYQlrmQU2mviIV-48" style="edgeStyle=orthogonalEdgeStyle;html=1;entryX=0;entryY=0.5;entryDx=0;entryDy=0;startArrow=none;startFill=0;endArrow=none;endFill=0;strokeColor=default;elbow=vertical;" edge="1" parent="e0_7lDDhxA25oNrazKJY-1" source="oWcIiMcYQlrmQU2mviIV-15" target="oWcIiMcYQlrmQU2mviIV-29">
                    <mxGeometry relative="1" as="geometry">
                        <Array as="points">
                            <mxPoint x="460" y="239"/>
                            <mxPoint x="460" y="450"/>
                            <mxPoint x="530" y="450"/>
                            <mxPoint x="530" y="577"/>
                        </Array>
                    </mxGeometry>
                </mxCell>
                <mxCell id="oWcIiMcYQlrmQU2mviIV-49" style="edgeStyle=orthogonalEdgeStyle;html=1;startArrow=none;startFill=0;endArrow=none;endFill=0;strokeColor=default;elbow=vertical;entryX=1;entryY=0.5;entryDx=0;entryDy=0;" edge="1" parent="e0_7lDDhxA25oNrazKJY-1" source="oWcIiMcYQlrmQU2mviIV-36" target="oWcIiMcYQlrmQU2mviIV-21">
                    <mxGeometry relative="1" as="geometry">
                        <mxPoint x="640" y="390" as="targetPoint"/>
                        <Array as="points">
                            <mxPoint x="730" y="270"/>
                            <mxPoint x="730" y="395"/>
                        </Array>
                    </mxGeometry>
                </mxCell>
                <mxCell id="oWcIiMcYQlrmQU2mviIV-50" value="user_address" style="swimlane;fontStyle=1;align=center;verticalAlign=top;childLayout=stackLayout;horizontal=1;startSize=26;horizontalStack=0;resizeParent=1;resizeParentMax=0;resizeLast=0;collapsible=1;marginBottom=0;fillColor=#dae8fc;strokeColor=#6c8ebf;" vertex="1" parent="e0_7lDDhxA25oNrazKJY-1">
                    <mxGeometry x="470" y="-20" width="160" height="156" as="geometry"/>
                </mxCell>
                <mxCell id="oWcIiMcYQlrmQU2mviIV-51" value="+ country: string" style="text;strokeColor=none;fillColor=none;align=left;verticalAlign=top;spacingLeft=4;spacingRight=4;overflow=hidden;rotatable=0;points=[[0,0.5],[1,0.5]];portConstraint=eastwest;" vertex="1" parent="oWcIiMcYQlrmQU2mviIV-50">
                    <mxGeometry y="26" width="160" height="26" as="geometry"/>
                </mxCell>
                <mxCell id="oWcIiMcYQlrmQU2mviIV-55" value="+ city: string" style="text;strokeColor=none;fillColor=none;align=left;verticalAlign=top;spacingLeft=4;spacingRight=4;overflow=hidden;rotatable=0;points=[[0,0.5],[1,0.5]];portConstraint=eastwest;" vertex="1" parent="oWcIiMcYQlrmQU2mviIV-50">
                    <mxGeometry y="52" width="160" height="26" as="geometry"/>
                </mxCell>
                <mxCell id="oWcIiMcYQlrmQU2mviIV-52" value="+ postal_code: string" style="text;align=left;verticalAlign=top;spacingLeft=4;spacingRight=4;overflow=hidden;rotatable=0;points=[[0,0.5],[1,0.5]];portConstraint=eastwest;" vertex="1" parent="oWcIiMcYQlrmQU2mviIV-50">
                    <mxGeometry y="78" width="160" height="26" as="geometry"/>
                </mxCell>
                <mxCell id="oWcIiMcYQlrmQU2mviIV-53" value="+ street: string" style="text;align=left;verticalAlign=top;spacingLeft=4;spacingRight=4;overflow=hidden;rotatable=0;points=[[0,0.5],[1,0.5]];portConstraint=eastwest;" vertex="1" parent="oWcIiMcYQlrmQU2mviIV-50">
                    <mxGeometry y="104" width="160" height="26" as="geometry"/>
                </mxCell>
                <mxCell id="oWcIiMcYQlrmQU2mviIV-54" value="+ number: string" style="text;align=left;verticalAlign=top;spacingLeft=4;spacingRight=4;overflow=hidden;rotatable=0;points=[[0,0.5],[1,0.5]];portConstraint=eastwest;" vertex="1" parent="oWcIiMcYQlrmQU2mviIV-50">
                    <mxGeometry y="130" width="160" height="26" as="geometry"/>
                </mxCell>
                <mxCell id="oWcIiMcYQlrmQU2mviIV-56" style="edgeStyle=orthogonalEdgeStyle;html=1;startArrow=none;startFill=0;endArrow=none;endFill=0;strokeColor=default;elbow=vertical;entryX=1;entryY=0.5;entryDx=0;entryDy=0;" edge="1" parent="e0_7lDDhxA25oNrazKJY-1" source="oWcIiMcYQlrmQU2mviIV-38" target="oWcIiMcYQlrmQU2mviIV-30">
                    <mxGeometry relative="1" as="geometry">
                        <Array as="points">
                            <mxPoint x="650" y="317"/>
                            <mxPoint x="650" y="520"/>
                            <mxPoint x="570" y="520"/>
                            <mxPoint x="570" y="546"/>
                        </Array>
                    </mxGeometry>
                </mxCell>
                <mxCell id="oWcIiMcYQlrmQU2mviIV-58" style="edgeStyle=orthogonalEdgeStyle;html=1;startArrow=none;startFill=0;endArrow=none;endFill=0;strokeColor=default;elbow=vertical;" edge="1" parent="e0_7lDDhxA25oNrazKJY-1" source="oWcIiMcYQlrmQU2mviIV-15" target="oWcIiMcYQlrmQU2mviIV-32">
                    <mxGeometry relative="1" as="geometry"/>
                </mxCell>
                <mxCell id="oWcIiMcYQlrmQU2mviIV-59" style="edgeStyle=orthogonalEdgeStyle;html=1;entryX=0;entryY=0.5;entryDx=0;entryDy=0;startArrow=none;startFill=0;endArrow=none;endFill=0;strokeColor=default;elbow=vertical;" edge="1" parent="e0_7lDDhxA25oNrazKJY-1" source="oWcIiMcYQlrmQU2mviIV-24" target="oWcIiMcYQlrmQU2mviIV-33">
                    <mxGeometry relative="1" as="geometry"/>
                </mxCell>
                <mxCell id="xqPkdPKPcXE-V9IMiLhe-1" style="edgeStyle=orthogonalEdgeStyle;html=1;entryX=1.006;entryY=0.083;entryDx=0;entryDy=0;entryPerimeter=0;startArrow=none;startFill=0;endArrow=none;endFill=0;strokeColor=default;elbow=vertical;" edge="1" parent="e0_7lDDhxA25oNrazKJY-1" source="oWcIiMcYQlrmQU2mviIV-21" target="oWcIiMcYQlrmQU2mviIV-50">
                    <mxGeometry relative="1" as="geometry">
                        <Array as="points">
                            <mxPoint x="680" y="395"/>
                            <mxPoint x="680" y="-7"/>
                        </Array>
                    </mxGeometry>
                </mxCell>
            </root>
        </mxGraphModel>
    </diagram>
</mxfile>